<svg version="1.1" id="Layer_1" xmlns="http://www.w3.org/2000/svg" xmlns:xlink="http://www.w3.org/1999/xlink" x="0px" y="0px" viewBox="0 0 500 500" style="width: 161px;" xml:space="preserve" data-imageid="video-tutorial-31" imageName="Video Tutorial" class="illustrations_image">
<style type="text/css">
	.st0_video-tutorial-31{fill:#FD5773;}
	.st1_video-tutorial-31{fill:url(#SVGID_1_);}
	.st2_video-tutorial-31{fill:url(#SVGID_00000096759098224237292840000016574193040991004850_);}
	.st3_video-tutorial-31{fill:url(#SVGID_00000178169055777485844830000003177168648865268378_);}
	.st4_video-tutorial-31{fill:url(#SVGID_00000088844736012547031760000005073691039954702480_);}
	.st5_video-tutorial-31{fill:url(#SVGID_00000134952628327307891310000010359470016653845888_);}
	.st6_video-tutorial-31{fill:#58E6CA;}
	.st7_video-tutorial-31{fill:#F2F2F2;}
	.st8_video-tutorial-31{opacity:0.1;enable-background:new    ;}
	.st9_video-tutorial-31{fill:#2C2CB5;}
	.st10_video-tutorial-31{opacity:0.2;fill:#F2F2F2;enable-background:new    ;}
	.st11_video-tutorial-31{fill:#963626;}
	.st12_video-tutorial-31{opacity:0.59;enable-background:new    ;}
	.st13_video-tutorial-31{fill:#FFB5A9;}
	.st14_video-tutorial-31{fill:#68E1FD;}
	.st15_video-tutorial-31{opacity:0.39;fill:#2C2CB5;enable-background:new    ;}
	.st16_video-tutorial-31{fill:#ED1C24;}
	.st17_video-tutorial-31{opacity:0.5;}
	.st18_video-tutorial-31{fill:#4EB300;}
	.st19_video-tutorial-31{opacity:0.2;enable-background:new    ;}
	.st20_video-tutorial-31{opacity:0.7;enable-background:new    ;}
</style>
<g id="background_video-tutorial-31">
	<path class="st0_video-tutorial-31" d="M241.5,416.1L23.4,287.2c-6.9-3.9-12.9-10.3-6.1-14.5l218.8-126.1c3.3-2,8.3-3.4,11.6-1.4L476.6,278&#10;&#9;&#9;c7,4,8.2,15.3,1.2,19.3L270.2,415.9C261.3,421,250.4,421.1,241.5,416.1z"/>
	
		<linearGradient id="SVGID_1_-video-tutorial-31" gradientUnits="userSpaceOnUse" x1="53.1304" y1="210.3197" x2="66.6004" y2="229.2797" gradientTransform="matrix(1 0 0 -1 0 502)">
		<stop offset="0" style="stop-color:#FD5773"/>
		<stop offset="1" style="stop-color:#963626"/>
	</linearGradient>
	<path class="st1_video-tutorial-31" d="M78.1,284.2c0.2-0.3,0.5-0.4,0.8-0.5c-1.2-5.1-3.8-9.9-7.4-13.7l-4.3,0.5L36.7,286l25,12l12.5-7.2&#10;&#9;&#9;C75.1,288.4,76.4,286.1,78.1,284.2z"/>
	
		<linearGradient id="SVGID_00000059996137601835819790000010505181406091292589_-video-tutorial-31" gradientUnits="userSpaceOnUse" x1="129.9775" y1="197.2418" x2="143.4475" y2="216.1918" gradientTransform="matrix(1 0 0 -1 0 502)">
		<stop offset="0" style="stop-color:#FD5773"/>
		<stop offset="1" style="stop-color:#963626"/>
	</linearGradient>
	<polyline style="fill:url(#SVGID_00000059996137601835819790000010505181406091292589_);" points="175.7,281.8 132.6,306.8 &#10;&#9;&#9;107.6,294.8 138.1,279.2 164.6,276.4 &#9;"/>
	
		<linearGradient id="SVGID_00000179639039141416724380000014043567652303035534_-video-tutorial-31" gradientUnits="userSpaceOnUse" x1="302.3659" y1="166.1029" x2="315.8359" y2="185.0629" gradientTransform="matrix(1 0 0 -1 0 502)">
		<stop offset="0" style="stop-color:#FD5773"/>
		<stop offset="1" style="stop-color:#963626"/>
	</linearGradient>
	<polyline style="fill:url(#SVGID_00000179639039141416724380000014043567652303035534_);" points="348.1,313 305,337.9 280,326 &#10;&#9;&#9;310.5,310.4 337,307.5 &#9;"/>
	
		<linearGradient id="SVGID_00000153683916856798247140000013233917201379685255_-video-tutorial-31" gradientUnits="userSpaceOnUse" x1="212.1377" y1="106.0713" x2="227.3977" y2="132.7713" gradientTransform="matrix(1 0 0 -1 0 502)">
		<stop offset="0" style="stop-color:#FD5773"/>
		<stop offset="1" style="stop-color:#963626"/>
	</linearGradient>
	<polyline style="fill:url(#SVGID_00000153683916856798247140000013233917201379685255_);" points="183.7,350.8 159.9,367.9 &#10;&#9;&#9;228.8,408.6 297.1,366.7 &#9;"/>
	
		<linearGradient id="SVGID_00000070094798732030461150000017212437105410536335_-video-tutorial-31" gradientUnits="userSpaceOnUse" x1="357.7429" y1="161.3555" x2="398.0829" y2="187.4955" gradientTransform="matrix(1 0 0 -1 0 502)">
		<stop offset="0" style="stop-color:#FD5773"/>
		<stop offset="1" style="stop-color:#963626"/>
	</linearGradient>
	<polyline style="fill:url(#SVGID_00000070094798732030461150000017212437105410536335_);" points="406,324.4 363.8,349.9 &#10;&#9;&#9;338.8,337.9 369.3,322.3 395.8,319.5 &#9;"/>
</g>
<g id="books_video-tutorial-31">
	<path class="st6_video-tutorial-31" d="M296.5,366.9c0.2,0,2.3-0.8,0.6-2.2c-1.2-0.9-2.4-1.7-3.7-2.5"/>
	<path class="st7_video-tutorial-31" d="M296.5,355.8c0,0-1.8,6.5,0,10l-24,14.1l-23.7,13.7v-10.1"/>
	<path class="st6_video-tutorial-31" d="M297.3,354.8c0,0.5-0.1,0.9-0.2,1.4l-48.3,27.3v10.1l48.3-28.1c0,0.4,0,0.8,0,1.2l-50.1,29v-13.8L297.3,354.8z&#10;&#9;&#9;"/>
	<path class="st6_video-tutorial-31" d="M297.1,355l-49.8,28.5l-69.9-41l48.8-28c1.5-0.9,3.4-0.9,4.9,0l66.1,39.2c0.4,0.2,0.5,0.6,0.3,1&#10;&#9;&#9;C297.3,354.8,297.2,354.9,297.1,355z"/>
	<path class="st6_video-tutorial-31" d="M247,395.7c0,0-69.9-41.1-69.6-41.3s0-11.9,0-11.9l69.9,41L247,395.7z"/>
	<path class="st8_video-tutorial-31" d="M247,395.7c0,0-69.9-41.1-69.6-41.3s0-11.9,0-11.9l69.9,41L247,395.7z"/>
	<path class="st6_video-tutorial-31" d="M297.1,353.7c0.4,0.3,0.7,0.8,0.7,1.3c0.1,0.9-0.8,1.3-1.1,1.4"/>
	<path class="st6_video-tutorial-31" d="M290,347.7c0.2,0,2.3-0.8,0.6-2.2c-1.2-0.9-2.4-1.8-3.7-2.5"/>
	<path class="st7_video-tutorial-31" d="M290,336.6c0,0-1.8,6.5,0,10l-24,14.1l-23.7,13.7v-10.1"/>
	<path class="st6_video-tutorial-31" d="M290.8,335.6c-0.1,0.5-0.1,0.9-0.2,1.4l-48.3,27.3v10.1l48.3-28.1c0,0.4,0,0.8,0,1.2l-50.1,29v-13.8&#10;&#9;&#9;L290.8,335.6z"/>
	<path class="st6_video-tutorial-31" d="M290.5,335.8l-49.8,28.5l-69.9-41l48.8-28c1.5-0.9,3.3-0.9,4.8,0l66.1,39.2c0.4,0.2,0.5,0.6,0.3,1&#10;&#9;&#9;C290.8,335.6,290.7,335.7,290.5,335.8z"/>
	<path class="st6_video-tutorial-31" d="M240.5,376.5c0,0-69.9-41.1-69.6-41.3s0-11.9,0-11.9l69.9,41L240.5,376.5z"/>
	<path class="st8_video-tutorial-31" d="M240.5,376.5c0,0-69.9-41.1-69.6-41.3s0-11.9,0-11.9l69.9,41L240.5,376.5z"/>
	<path class="st6_video-tutorial-31" d="M290.5,334.5c0.4,0.3,0.7,0.8,0.7,1.3c0.1,0.9-0.8,1.3-1.1,1.5"/>
	<path class="st9_video-tutorial-31" d="M182,322.9c-3.2-4.1-8.4-1.8-10,2.4c-1.8,4.7-0.2,10.2,4.8,12c2.2,0.8,3.1-2.7,1-3.5c-2.5-0.9-3.1-3.6-2.6-6&#10;&#9;&#9;c0.4-2.2,2.4-4.9,4.4-2.3C180.9,327.3,183.4,324.7,182,322.9z"/>
	<path class="st9_video-tutorial-31" d="M192.5,329.4c-3.2-4.1-8.4-1.8-10,2.4c-1.8,4.7-0.2,10.2,4.7,12c2.2,0.8,3.2-2.7,1-3.5c-2.5-0.9-3.1-3.6-2.6-6&#10;&#9;&#9;c0.4-2.2,2.4-4.9,4.4-2.3C191.4,333.9,193.9,331.3,192.5,329.4z"/>
	<path class="st9_video-tutorial-31" d="M204.5,336.3c-3.2-4.1-8.4-1.8-10,2.4c-1.8,4.7-0.2,10.2,4.8,12c2.2,0.8,3.1-2.7,1-3.5c-2.5-0.9-3.1-3.6-2.7-6&#10;&#9;&#9;c0.4-2.2,2.4-4.9,4.4-2.3C203.4,340.7,205.9,338.1,204.5,336.3z"/>
	<path class="st9_video-tutorial-31" d="M215.6,342.5c-3.2-4.1-8.4-1.8-10,2.4c-1.8,4.7-0.2,10.2,4.7,12c2.2,0.8,3.2-2.7,1-3.5c-2.5-0.9-3.1-3.6-2.6-6&#10;&#9;&#9;c0.4-2.2,2.4-4.9,4.4-2.3C214.5,346.9,217.1,344.3,215.6,342.5z"/>
	<path class="st9_video-tutorial-31" d="M226.5,347.9c-3.2-4.1-8.4-1.8-10,2.4c-1.8,4.7-0.2,10.2,4.7,12c2.2,0.8,3.2-2.7,1-3.5c-2.5-0.9-3.1-3.6-2.6-6&#10;&#9;&#9;c0.4-2.2,2.4-4.9,4.4-2.3C225.4,352.3,228,349.7,226.5,347.9z"/>
	<path class="st9_video-tutorial-31" d="M237.7,353.4c-3.2-4.1-8.4-1.8-10,2.4c-1.8,4.7-0.2,10.2,4.8,12c2.2,0.8,3.1-2.7,1-3.5c-2.5-0.9-3.1-3.6-2.6-6&#10;&#9;&#9;c0.4-2.2,2.3-4.9,4.4-2.3C236.5,357.8,239.1,355.2,237.7,353.4z"/>
</g>
<g id="character_2_video-tutorial-31">
	<path class="st9_video-tutorial-31" d="M142.1,122.4L220.1,78c1.6-0.9,3.4-0.9,5,0l0,0l5.3,2.8l-2.7,0.8c0.1,0.3,0.1,0.6,0.1,0.9l1.5,156.8&#10;&#9;&#9;c0,4.5-2.4,8.6-6.3,10.8l-78.4,44.3c-0.2,0.1-0.3,0.2-0.5,0.2l1,2.5l-4.9-2.4c-0.3-0.1-0.6-0.3-0.9-0.5l0,0&#10;&#9;&#9;c-1.4-0.9-2.3-2.5-2.3-4.3V131.1C137,127.5,138.9,124.2,142.1,122.4z"/>
	<path class="st9_video-tutorial-31" d="M228.1,252.4l-78.4,44.3c-2.5,1.4-5.6,0.5-7-1.9c-0.4-0.8-0.7-1.6-0.7-2.5V133.5c0-3.6,1.9-6.9,5.1-8.7&#10;&#9;&#9;l78.1-44.3c2.5-1.4,5.6-0.5,7,1.9c0.4,0.8,0.7,1.6,0.7,2.5l1.5,156.8C234.4,246.1,232,250.2,228.1,252.4z"/>
	<path class="st10_video-tutorial-31" d="M228.1,252.4l-78.4,44.3c-2.5,1.4-5.6,0.5-7-1.9c-0.4-0.8-0.7-1.6-0.7-2.5V133.5c0-3.6,1.9-6.9,5.1-8.7&#10;&#9;&#9;l78.1-44.3c2.5-1.4,5.6-0.5,7,1.9c0.4,0.8,0.7,1.6,0.7,2.5l1.5,156.8C234.4,246.1,232,250.2,228.1,252.4z"/>
	<polygon class="st7_video-tutorial-31" points="228.8,243.1 148.3,288.5 148.3,137.5 227.4,92.6 &#9;"/>
	<path class="st11_video-tutorial-31" d="M168.5,279.8c-4-24.3-7.2-50.8-7.8-56.6c-1.1-11.4,7-24,7-24s27.5-2.9,34.4,10.4c3,5.8,5.3,25.1,6.9,45.1&#10;&#9;&#9;C195.9,263.7,181.8,271.2,168.5,279.8z"/>
	<path d="M192.5,265.2c-1.2-13.2-2.5-26.5-3.7-39.7c-0.1-1.2,1.7-1.2,1.8,0l3.6,38.7L192.5,265.2z"/>
	<path class="st12_video-tutorial-31" d="M184.1,216c6.3-1.2,12.2-3.8,17.2-7.7c-0.2-0.3-0.3-0.4-0.3-0.4c-24,0.1-33.4-8.7-33.4-8.7&#10;&#9;&#9;c-3.6,5.6-5.9,11.9-6.8,18.4C168.6,218,176.4,217.5,184.1,216z"/>
	<path class="st13_video-tutorial-31" d="M272,166.1c-2-0.5-4.1-0.8-6.2-1c2.1,0,4.2,0.2,6.3,0.6c2.2,0.4,2.4-3.1,0.3-3.4l-1.1-0.2&#10;&#9;&#9;c0.6-0.8,0.5-1.9-0.2-2.5c-0.3-0.2-0.6-0.3-0.9-0.4c-4.8-0.6-9.6-0.2-14.2,1.3c0.1-1.7,0.1-3.5-0.1-5.2c0-0.3-0.2-0.6-0.3-0.8&#10;&#9;&#9;c-0.4-1.5-3.1-1.4-3.4,0.5c-0.5,2.8-0.3,5.6-0.8,8.3c-0.1,0.5-0.2,1-0.4,1.5c-2.1,2.2-4.2,4.4-6.2,6.7c-1.4,1.6,1.2,3.5,2.7,2.1&#10;&#9;&#9;c0.2,0.3,0.5,0.6,0.9,0.8c-0.1,0.1-0.2,0.2-0.2,0.3c-0.3,0.4-0.4,1-0.2,1.5l-0.2,0.2c-1.6,1.5,0.6,4.2,2.2,2.6l0.5-0.6&#10;&#9;&#9;c0.6,0.4,1.5,0.2,1.9-0.4c0-0.1,0.1-0.1,0.1-0.2c1.3-2.2,3.2-4,5.3-5.3l0.7-0.5c1.9-0.6,3.8-1,5.8-1.1c1.5,0.4,2.9,0.8,4.3,1.3&#10;&#9;&#9;c2,0.6,3.2-2.3,1.3-3.1l0.9,0.2C273,169.8,274.2,166.6,272,166.1z"/>
	<path d="M271.6,161.7c-2.3-0.3-4.5-0.4-6.8-0.3c-0.6,0-0.6,0.9-0.1,0.9c2.3-0.1,4.6,0,6.8,0.3C272.1,162.6,272.2,161.7,271.6,161.7&#10;&#9;&#9;z"/>
	<path d="M271.9,165.1c-2.4-0.4-4.8-0.5-7.3-0.5c-0.6,0-0.6,0.9-0.1,0.9c2.4,0,4.9,0.2,7.3,0.5C272.4,166.1,272.5,165.2,271.9,165.1&#10;&#9;&#9;z"/>
	<path d="M262.3,166.3c-2.8-0.9-5.5-0.1-7.9,1.5c-0.5,0.3,0.1,1,0.6,0.7c2.1-1.4,4.5-2.2,7-1.3c0.2,0.1,0.5-0.1,0.5-0.3&#10;&#9;&#9;C262.6,166.6,262.5,166.4,262.3,166.3z"/>
	<path d="M263.7,166.1c-0.5-2-1.3-3.9-3.3-4.7c-0.5-0.2-0.8,0.6-0.3,0.8c1.7,0.7,2.4,2.4,2.7,4.1&#10;&#9;&#9;C262.9,166.8,263.8,166.6,263.7,166.1z"/>
	<path d="M270.7,168.3c-1.8-0.8-3.7-1.3-5.6-1.5c-0.6-0.1-0.6,0.8-0.1,0.9c1.9,0.2,3.7,0.7,5.4,1.5&#10;&#9;&#9;C270.9,169.4,271.2,168.5,270.7,168.3z"/>
	<path class="st14_video-tutorial-31 targetColor" d="M249.1,165.1c-3.7,2.3-9.9,7.5-13.5,10.6l-2.3-14.2l-17.2,5.5c0,0,3.6,22.3,8.8,28.1c0,0,4.6,6.6,13.3,1.9&#10;&#9;&#9;c6.1-3.3,15.9-15.2,20.5-22.3C256.8,170.5,253.5,166.8,249.1,165.1z" style="fill: rgb(104, 225, 253);"/>
	<path class="st15_video-tutorial-31" d="M249.1,165.1c-3.7,2.3-9.9,7.5-13.5,10.6l-2.3-14.2l-17.2,5.5c0,0,3.6,22.3,8.8,28.1c0,0,4.6,6.6,13.3,1.9&#10;&#9;&#9;c6.1-3.3,15.9-15.2,20.5-22.3C256.8,170.5,253.5,166.8,249.1,165.1z"/>
	<path class="st14_video-tutorial-31 targetColor" d="M213.8,148.4c-0.9-0.2-8.4,1-15,3.2s-34.9,43.6-31.1,47.7s21.2,12.4,31.7,10.1s35-43.1,33.9-47.8&#10;&#9;&#9;c-2.6-10.6-10.9-10.7-10.9-10.7" style="fill: rgb(104, 225, 253);"/>
	<path class="st13_video-tutorial-31" d="M233.4,139.4c0,0-1.2,15.7-7.3,17.3s-10.9-5.3-12-9s0.4-20.9,10.6-17.6C234.8,133.3,233.4,139.4,233.4,139.4z&#10;&#9;&#9;"/>
	<path class="st11_video-tutorial-31" d="M232.8,127.2c-4.3-1.5-9.3-4.8-17,0.3c-7.7,5.1-10.1,19.2-0.9,22.6l1.7-5.1c-0.8-1-1.2-2.3-1.1-3.6&#10;&#9;&#9;c0.1-1.7,1.5-2.9,3.2-2.8c0.1,0,0.3,0,0.4,0c1-0.7,1.7-1.6,2.3-2.7c1.6-3.1,3.3-1.6,5.6,1.2s7.1,3.6,9.5,1.8&#10;&#9;&#9;S238.2,129.1,232.8,127.2z"/>
	<path class="st14_video-tutorial-31 targetColor" d="M218.9,194c0,0-9.1-7.6-9.1-10.9s4.7-27.7-3.1-29.6s-14.2,16.5-16.4,27.3s14.2,22.3,14.2,22.3" style="fill: rgb(104, 225, 253);"/>
	<path class="st13_video-tutorial-31" d="M231.7,194.8l9.9-3.4c0,0,6.8-5.3,9.9-3.1c0.8,0.6-6.6,5.6-6.6,5.6s12.9-2.5,13.3,0.1&#10;&#9;&#9;c0.8,5.1-4.1,12.4-9.7,11.8c-6.1-0.8-12.1-1.9-18-3.3"/>
	<path class="st14_video-tutorial-31 targetColor" d="M240.6,191c-5.5-1.5-13.7-0.6-21.3-1.1c-9.8,0-21-1-20.2,9.4c0.9,11.6,32.8,8.3,41.9,7.1&#10;&#9;&#9;C242.7,201.6,242.2,196.2,240.6,191z" style="fill: rgb(104, 225, 253);"/>
	<path class="st15_video-tutorial-31" d="M205.2,205.8c0,0-12.4-4-13.7-14.5s-1.5-19.5-1.5-19.5s-8.6,20.4-5.2,27.1S205.2,205.8,205.2,205.8z"/>
	<path class="st15_video-tutorial-31" d="M219.3,190c0,0-10.2-1.2-9.6-6.9s3.9-13.9,3.9-13.9S208.9,187.6,219.3,190z"/>
	<path class="st16_video-tutorial-31" d="M176,198.6l22.2-12.9c1.6-0.9,3.7-0.3,4.6,1.3c0.3,0.5,0.4,1,0.4,1.6v14.4c0,1.2-0.6,2.3-1.7,2.9l-22.2,13.1&#10;&#9;&#9;c-1.6,0.9-3.7,0.4-4.6-1.2c-0.3-0.5-0.5-1.1-0.5-1.7v-14.7C174.3,200.3,174.9,199.1,176,198.6z"/>
	<path class="st7_video-tutorial-31" d="M186.7,197c0,2.5,0,9.5,0,12.2c0,0.3,0.2,0.5,0.5,0.5c0.1,0,0.2,0,0.3-0.1l9.1-7.5c0.2-0.2,0.3-0.5,0.1-0.7&#10;&#9;&#9;c0-0.1-0.1-0.1-0.2-0.1l-9-4.7c-0.2-0.2-0.6-0.1-0.7,0.1C186.7,196.7,186.7,196.9,186.7,197z"/>
	<path d="M154.2,279.6l23.4-13.5l37.4-21.6l8.6-5c0.4-0.3,0.5-0.9,0.2-1.3c-0.3-0.4-0.7-0.5-1.1-0.3l-23.5,13.5l-37.4,21.6l-8.6,5&#10;&#9;&#9;c-0.4,0.3-0.6,0.8-0.3,1.3C153.3,279.8,153.8,279.9,154.2,279.6L154.2,279.6z"/>
	<g class="st17_video-tutorial-31">
		<path class="st7_video-tutorial-31" d="M154.2,279.6l23.4-13.5l37.4-21.6l8.6-5c0.4-0.3,0.5-0.9,0.2-1.3c-0.3-0.4-0.7-0.5-1.1-0.3l-23.5,13.5&#10;&#9;&#9;&#9;l-37.4,21.6l-8.6,5c-0.4,0.3-0.6,0.8-0.3,1.3C153.3,279.8,153.8,279.9,154.2,279.6L154.2,279.6z"/>
	</g>
	<ellipse transform="matrix(0.2761 -0.9611 0.9611 0.2761 -156.0656 349.7127)" cx="154.1" cy="278.5" rx="2.5" ry="1.9"/>
</g>
<g id="list_video-tutorial-31">
	<path class="st14_video-tutorial-31 targetColor" d="M285.8,185.6c0,0-13.6,3.9-9.6,28.6l29.9-19.1C306,195.1,294,183.3,285.8,185.6z" style="fill: rgb(104, 225, 253);"/>
	<path class="st15_video-tutorial-31" d="M285.8,185.6c0,0-13.6,3.9-9.6,28.6l29.9-19.1C306,195.1,294,183.3,285.8,185.6z"/>
	<path class="st14_video-tutorial-31 targetColor" d="M385.9,290.1c-12.9,9.3-27.6,16.5-41.3,24.5c-9.8,5.7-19.6,11.5-29.4,17.3c-31-24.1-14.3-64.2-14.1-96.4&#10;&#9;&#9;c0-11.1-0.1-22.8-3.2-33.6c-1.1-3.9-2.6-8.1-5.3-11.3c-1.2-1.4-9.8-6.6-12-5.4l15.4-8c0.9-0.5,3-1.4,3.9-2&#10;&#9;&#9;c5.2-3.1,11.9-6.3,17.2-9.4c6.4-3.8,10.3-5.2,16.8-9.1l7.3-4.3c2.1-1.2,4.6-3.3,7.2-2.7c2.4,0.5,4.5,2.6,6.1,4.4&#10;&#9;&#9;c2.7,3.1,4.2,7.3,5.3,11.3c3,10.8,3.2,22.4,3.2,33.6C362.8,232.8,348.7,267,385.9,290.1z" style="fill: rgb(104, 225, 253);"/>
	<ellipse class="st7_video-tutorial-31" cx="315.9" cy="204.9" rx="5.4" ry="7.4"/>
	<path class="st7_video-tutorial-31" d="M324.9,197.5l29-17.1c0.7-0.5,0.9-1.4,0.4-2.1c-0.4-0.6-1.3-0.9-1.9-0.5l-29,17.1c-0.7,0.5-0.9,1.4-0.4,2.1&#10;&#9;&#9;C323.4,197.6,324.2,197.8,324.9,197.5z"/>
	<path class="st7_video-tutorial-31" d="M327.2,203.1l18.4-10.6c0.7-0.5,0.9-1.4,0.4-2.1c-0.4-0.6-1.3-0.9-1.9-0.5l-18.4,10.6&#10;&#9;&#9;c-0.7,0.4-0.9,1.4-0.5,2.1C325.6,203.3,326.5,203.5,327.2,203.1z"/>
	<ellipse transform="matrix(0.2001 -0.9798 0.9798 0.2001 19.708 498.5249)" class="st7_video-tutorial-31" cx="315.2" cy="237.2" rx="7.4" ry="5.4"/>
	<path class="st7_video-tutorial-31" d="M324.1,231.8l29-17.1c0.7-0.5,0.9-1.4,0.4-2.1c-0.4-0.6-1.3-0.9-1.9-0.5l-29,17.1c-0.7,0.5-0.9,1.4-0.4,2.1&#10;&#9;&#9;C322.6,231.9,323.4,232.1,324.1,231.8z"/>
	<path class="st7_video-tutorial-31" d="M326.4,237.4l18.4-10.6c0.7-0.5,0.9-1.4,0.4-2.1c-0.4-0.6-1.3-0.9-1.9-0.5l-18.4,10.6&#10;&#9;&#9;c-0.7,0.4-0.9,1.4-0.5,2.1C324.8,237.6,325.7,237.8,326.4,237.4z"/>
	
		<ellipse transform="matrix(0.2815 -0.9596 0.9596 0.2815 -33.1465 491.5078)" class="st7_video-tutorial-31" cx="311.6" cy="267.9" rx="7.4" ry="5.4"/>
	<path class="st7_video-tutorial-31" d="M320.5,263.4l29-17c0.7-0.5,0.9-1.4,0.4-2.1c-0.4-0.6-1.3-0.9-1.9-0.5l-29,17.1c-0.7,0.4-1,1.3-0.5,2.1&#10;&#9;&#9;C318.9,263.6,319.8,263.9,320.5,263.4L320.5,263.4L320.5,263.4z"/>
	<path class="st7_video-tutorial-31" d="M321.1,269.7l18.4-10.5c0.7-0.5,0.9-1.4,0.4-2.1c-0.4-0.6-1.3-0.9-1.9-0.5l-18.4,10.5&#10;&#9;&#9;c-0.7,0.5-0.9,1.4-0.4,2.1C319.6,269.8,320.5,270,321.1,269.7z"/>
	<ellipse class="st7_video-tutorial-31" cx="315.1" cy="296.6" rx="5.4" ry="7.4"/>
	<path class="st7_video-tutorial-31" d="M323.7,290.7l29-17.1c0.7-0.4,1-1.3,0.6-2.1s-1.3-1-2.1-0.6l-29,17c-0.7,0.5-0.9,1.4-0.4,2.1&#10;&#9;&#9;C322.2,290.8,323,291,323.7,290.7L323.7,290.7z"/>
	<path class="st7_video-tutorial-31" d="M326.2,296l18.4-10.5c0.7-0.5,0.9-1.4,0.4-2.1c-0.4-0.6-1.3-0.9-1.9-0.5l-18.4,10.5c-0.7,0.5-0.9,1.4-0.4,2.1&#10;&#9;&#9;C324.7,296.1,325.5,296.3,326.2,296L326.2,296z"/>
	<path class="st18_video-tutorial-31" d="M312.9,205.4l1.2-2.3c0,0,2.6,2.9,2.6,2.6s2.4-11.4,2.4-11.4l2,1.6l-3.2,13.3L312.9,205.4z"/>
	<path class="st7_video-tutorial-31" d="M316.6,325.1c-16-12.1-14.2-32.4-15.5-37.7s3.1-30.1,4.9-48.7s-2-37.4-3.3-41.9c-1-3.4-5-9.7-12.8-12.7&#10;&#9;&#9;c-12.5-2.1-18.6,9-20.4,20.6c0.1,2.6,0.3,4.4,0.3,4.4l6.3,5.1c-3.5-26.1,7.7-26.6,11.5-26.6c10.1,0,16.2,21.9,9.1,76.5&#10;&#9;&#9;s18.5,67.7,18.5,67.7l57.1-33v-6.5L316.6,325.1z"/>
</g>
<g id="character_1_video-tutorial-31">
	<path class="st13_video-tutorial-31" d="M380.1,195.3l-4.3-3.4c-0.9-0.7-1.9-1-2.4-2.1c-0.6-1.4-0.5-3-1.2-4.4c-0.1-0.5-0.7-0.8-1.2-0.7&#10;&#9;&#9;c-0.2,0-0.3,0.1-0.4,0.2c-0.4,0.6-0.6,1.4-0.3,2.1c-0.8-0.5-1.7-0.8-2.6-0.8c-1,0.2-1.8,1.1-1.9,2.2c-0.2,1.4,0.9,2.6,1.8,3.6&#10;&#9;&#9;c1.9,2.4,4.1,4.7,6.4,6.8c0.4,0.4,4.4,3.4,4.3,3.8L380.1,195.3z"/>
	<polyline class="st11_video-tutorial-31" points="378.1,192.8 375.9,191.9 373,198.4 374.9,201.1 &#9;"/>
	<polyline class="st19_video-tutorial-31" points="378.1,192.8 375.9,191.9 373,198.4 374.9,201.1 &#9;"/>
	<path class="st11_video-tutorial-31" d="M366.4,180.3c0,0,1.5-0.8,3.4,0.8s0.9,2.6,0.9,2.6S366,183.1,366.4,180.3z"/>
	<path class="st11_video-tutorial-31" d="M329.3,237.2c0.3-0.1,1.3-0.8,1.6-0.9l39.8-52.7c0,0-4.5-1.6-4.3-3.4l-40.2,52c-0.4,0.9-0.7,1.9-1.1,2.8&#10;&#9;&#9;l2.6,2.9C328.2,237.6,328.7,237.4,329.3,237.2z"/>
	<path class="st7_video-tutorial-31" d="M330.9,236.3c0,0-4.3-0.5-4.5-4.3l-5,10.2L330.9,236.3z"/>
	<path class="st11_video-tutorial-31" d="M321.4,242.2l2.7-5.6c0,0,0.2,1.9,2.6,2.2L321.4,242.2z"/>
	<path class="st11_video-tutorial-31" d="M394.6,215.5c-0.4-0.3-0.5-0.9-0.2-1.3c0.1-0.1,0.3-0.3,0.5-0.3c3.1-0.8,6.7-1.2,9.3-3.2&#10;&#9;&#9;c5.5-4.3,1.3-12.9-1.7-17.4c-1.3-2-2.9-3.8-4.6-5.4c-0.1-0.1-2.2-1.7-2.2-1.8l-9.6,31.5l-3.3,2.4c3.7,0.6,7.5,0.7,11.3,0.3&#10;&#9;&#9;C394.1,218.7,394.3,217.1,394.6,215.5z"/>
	<path class="st19_video-tutorial-31" d="M394.6,215.5c-0.4-0.3-0.5-0.9-0.2-1.3c0.1-0.1,0.3-0.3,0.5-0.3c3.1-0.8,6.7-1.2,9.3-3.2&#10;&#9;&#9;c5.5-4.3,1.3-12.9-1.7-17.4c-1.3-2-2.9-3.8-4.6-5.4c-0.1-0.1-2.2-1.7-2.2-1.8l-9.6,31.5l-3.3,2.4c3.7,0.6,7.5,0.7,11.3,0.3&#10;&#9;&#9;C394.1,218.7,394.3,217.1,394.6,215.5z"/>
	<path class="st9_video-tutorial-31" d="M397.3,323.4l4-2.2l-1-5.7c0,0-5.9,0.5-6.4,2.7"/>
	<path class="st14_video-tutorial-31 targetColor" d="M395.8,323.3c-0.9-0.5-1.8-1-2.8-1.5c-2.3-1.2-5.6-2.5-7-4.9c-0.6-1-0.5-2.2,0.2-3.1c2.1-2.5,6.6,1.6,9-1.2&#10;&#9;&#9;c0.5-0.5,0.7-9.3,0.7-9.3l8.9,2.4c0,0,1.5,17.5,1.3,18.6s-3.2,2.1-3.2,2.1c-0.9-0.2-1.8-0.5-2.5-1c-0.9-0.7-0.1-8.9-1.3-7.8&#10;&#9;&#9;s-1.7,5.7-1.7,5.7C396.8,323.4,396.3,323.4,395.8,323.3z" style="fill: rgb(104, 225, 253);"/>
	<path class="st9_video-tutorial-31" d="M380.3,331.9l4-2.2l-1-5.7c0,0-5.9,0.5-6.4,2.7"/>
	<path class="st14_video-tutorial-31 targetColor" d="M378.8,331.8c-0.9-0.5-1.8-1-2.8-1.5c-2.3-1.2-5.6-2.5-7-4.9c-0.6-1-0.5-2.2,0.2-3.1c2.1-2.5,6.6,1.6,9-1.2&#10;&#9;&#9;c0.5-0.5,0.7-9.3,0.7-9.3l8.9,2.4c0,0,1.5,17.5,1.3,18.6s-3.2,2.1-3.2,2.1c-0.9-0.2-1.8-0.5-2.5-1c-0.9-0.7-0.1-8.9-1.3-7.8&#10;&#9;&#9;s-1.7,5.7-1.7,5.7C379.8,331.9,379.3,331.9,378.8,331.8z" style="fill: rgb(104, 225, 253);"/>
	<path class="st9_video-tutorial-31" d="M409.2,274.8l2.6,34.9c0,0-4.1,5.7-18.1,2.5l0,0l-0.1-23.5"/>
	<path class="st9_video-tutorial-31" d="M393,281.8c0.3,3,0,36.1,0,36.1s-3.9,7.2-20.6,0l0.2-28.1"/>
	<path class="st9_video-tutorial-31" d="M410.5,292.4c-1.1,0.8-1.5-9.3-2.7-8.6c-4.3,2.5-8.9,4.5-13.7,6.1l-0.1,0c-0.5-0.2-1,0-1.3,0.4c0,0,0,0,0,0&#10;&#9;&#9;c-3,0.9-6,1.5-9,2c-3.9,0.6-7.2-2.3-11.2-2.5c0-15.4-0.1-59.2,6.5-68.5l19.4-6.5c0.1,1.6,9.4,12.4,9.2,25.6&#10;&#9;&#9;c-0.2,14.8,1.7,28.8,2,33.5C409.5,274.7,410.4,291.6,410.5,292.4z"/>
	<path class="st11_video-tutorial-31" d="M377.1,203.7l1.8,17.6c0,0,14.5,0.6,20.7-3.7v-15"/>
	<path class="st13_video-tutorial-31" d="M357,192.9c0.5,0.7,1,1.3,1.5,2c-0.8-1.6-1.5-3.3-2.1-5c-0.4-1.2,1.5-1.6,1.9-0.5l0.2,0.6&#10;&#9;&#9;c-0.2-0.6-0.4-1.2-0.5-1.9c0-0.6,0.5-1,1-1c0.4,0,0.7,0.2,0.9,0.5c0.4,1.6,0.9,3.2,1.5,4.8c-0.3-1.4-0.6-2.8-0.7-4.3&#10;&#9;&#9;c-0.1-1.2,1.8-1.2,1.9,0c0.2,1.6,0.5,3.2,0.9,4.8c0-0.6,0.1-1.1,0.2-1.6c0-0.3,0.2-0.5,0.4-0.7c0.1-0.2,0.1-0.4,0.2-0.6&#10;&#9;&#9;c0.2-0.5,0.8-0.7,1.3-0.5c0.3,0.1,0.5,0.4,0.6,0.8l0.1,7.3c0.4,0.8,0.8,1.5,1.4,2.1c-0.9,0.7-1.8,1.4-2.7,2.1&#10;&#9;&#9;c-0.8,0.7-1.5,1.4-2.2,2.1c-0.6-0.8-1.2-1.6-1.8-2.4c-0.1-0.1-0.1-0.1-0.2-0.2c-1.7-2.6-3.5-5.1-5.4-7.6&#10;&#9;&#9;C354.6,192.9,356.3,191.9,357,192.9z"/>
	<path class="st11_video-tutorial-31" d="M386.3,187.6c0,0-6.8,1.8-9.6,6.3c-1.7,3-3.3,6.2-4.6,9.4l-5-7.9c0,0-6.1,1.9-8.6,4.9c0,0,7.3,15.9,13.6,17.2&#10;&#9;&#9;s13-9.4,13-9.4s1.4,4.5,1.1-0.3"/>
	<path d="M403.2,207.6c-3.9,3.4-13.1,3.2-18,0.6c-0.5-1.8-1.8-23.8-1.9-25.7c-0.1-2.7,0.2-5.4,0.4-8.1c0-0.1,0-0.2,0-0.4&#10;&#9;&#9;c0.9-3.1,2.8-5.7,6.5-6c9.5-0.8,10.1,9.8,10,14.1C400.1,184.6,402.7,206,403.2,207.6z"/>
	<path d="M392.8,235.7c0-0.4,0.3-0.7,0.7-0.7c0.4,0,0.7,0.3,0.7,0.7c-0.3,26.1,0,52.2,0.8,78.3c0,0.4-0.3,0.7-0.7,0.7&#10;&#9;&#9;c-0.4,0-0.7-0.3-0.7-0.7C392.8,287.9,392.5,261.8,392.8,235.7z"/>
</g>
<g id="plant_video-tutorial-31">
	<path class="st14_video-tutorial-31 targetColor" d="M50,257.8c0,0-5,34.5,16.7,34.6c20.9,0.1,15.5-35.1,15.5-35.1S67.1,244.1,50,257.8z" style="fill: rgb(104, 225, 253);"/>
	<ellipse class="st14_video-tutorial-31 targetColor" cx="66.1" cy="257.8" rx="16.1" ry="6.6" style="fill: rgb(104, 225, 253);"/>
	<ellipse class="st20_video-tutorial-31" cx="66.1" cy="257.8" rx="16.1" ry="6.6"/>
	<path class="st18_video-tutorial-31" d="M40.8,207.4c0,0-11.2-2.7-6.9-12C33.9,195.4,41.6,196.9,40.8,207.4z"/>
	<path class="st18_video-tutorial-31" d="M47.6,216.8c0,0-1.5-8,4.7-11.2C52.3,205.6,57.3,213.9,47.6,216.8z"/>
	<path class="st18_video-tutorial-31" d="M54.6,229c0,0-1.9-9.5,5.6-13.4C60.2,215.6,66.2,225.6,54.6,229z"/>
	<path class="st18_video-tutorial-31" d="M60,242.3c0,0-1.9-9.5,5.6-13.4C65.6,228.9,71.6,238.9,60,242.3z"/>
	<path class="st18_video-tutorial-31" d="M46.9,217c0,0-4-7.1-10.8-5.5C36.2,211.5,37.7,221.1,46.9,217z"/>
	<path class="st18_video-tutorial-31" d="M54,229.3c0,0-5-8.3-13.1-6.1C40.9,223.2,43.2,234.6,54,229.3z"/>
	<path class="st18_video-tutorial-31" d="M59.4,242.4c0,0-5.9-7.7-13.7-4.6C45.7,237.8,49.2,248.9,59.4,242.4z"/>
	<path d="M63.6,264.5h0.2c0.5,0,1,0,1.6,0.1c0-0.1,0-0.1,0-0.2c-2.4-21.3-10.8-41.5-24.2-58.3c-0.7-0.9-1.9,0.4-1.2,1.2&#10;&#9;&#9;C52.9,223.8,61.1,243.6,63.6,264.5L63.6,264.5z"/>
	<path class="st18_video-tutorial-31" d="M90.1,222.6c0,0,9.6-2.3,5.9-10.3C96,212.3,89.4,213.6,90.1,222.6z"/>
	<path class="st18_video-tutorial-31" d="M84.2,230.6c0,0,1.3-6.8-4-9.6C80.2,221.1,75.9,228.2,84.2,230.6z"/>
	<path class="st18_video-tutorial-31" d="M78.2,241.1c0,0,1.6-8.2-4.8-11.5C73.4,229.6,68.3,238.2,78.2,241.1z"/>
	<path class="st18_video-tutorial-31" d="M73.6,252.5c0,0,1.6-8.2-4.8-11.5C68.8,241.1,63.7,249.6,73.6,252.5z"/>
	<path class="st18_video-tutorial-31" d="M84.8,230.8c0,0,3.4-6.1,9.2-4.7C94.1,226.1,92.7,234.3,84.8,230.8z"/>
	<path class="st18_video-tutorial-31" d="M78.7,241.4c0,0,4.3-7.1,11.3-5.2C90,236.1,88,245.9,78.7,241.4z"/>
	<path class="st18_video-tutorial-31" d="M74.1,252.6c0,0,5.1-6.6,11.8-4C85.9,248.6,82.9,258.2,74.1,252.6z"/>
	<path d="M89.8,221.6c-9.9,12.5-16.6,27.2-19.6,42.8c0.5-0.1,1-0.1,1.6-0.2c3-15.2,9.5-29.4,19.1-41.5&#10;&#9;&#9;C91.4,221.9,90.4,220.8,89.8,221.6z"/>
</g>
</svg>