<svg xmlns="http://www.w3.org/2000/svg" xmlns:xlink="http://www.w3.org/1999/xlink" width="466" zoomAndPan="magnify" viewBox="0 0 349.5 299.999988" height="400" preserveAspectRatio="xMidYMid meet" version="1.0"><defs><g/><clipPath id="9948ffd1ed"><path d="M 0 0.214844 L 349 0.214844 L 349 299.785156 L 0 299.785156 Z M 0 0.214844 " clip-rule="nonzero"/></clipPath><clipPath id="538a3a321f"><path d="M 42.789062 0.214844 L 342.363281 0.214844 L 342.363281 299.785156 L 42.789062 299.785156 Z M 42.789062 0.214844 " clip-rule="nonzero"/></clipPath><clipPath id="116f70d736"><path d="M 192.578125 0.214844 C 109.851562 0.214844 42.789062 67.277344 42.789062 150 C 42.789062 232.722656 109.851562 299.785156 192.578125 299.785156 C 275.300781 299.785156 342.363281 232.722656 342.363281 150 C 342.363281 67.277344 275.300781 0.214844 192.578125 0.214844 Z M 192.578125 0.214844 " clip-rule="nonzero"/></clipPath><linearGradient x1="128" gradientTransform="matrix(1.170201, 0, 0, 1.170201, 42.790757, 0.21428)" y1="0" x2="128" gradientUnits="userSpaceOnUse" y2="255.999989" id="266b4f685f"><stop stop-opacity="1" stop-color="rgb(36.499023%, 87.799072%, 90.19928%)" offset="0"/><stop stop-opacity="1" stop-color="rgb(36.355591%, 87.568665%, 90.110779%)" offset="0.00390625"/><stop stop-opacity="1" stop-color="rgb(36.213684%, 87.339783%, 90.023804%)" offset="0.0078125"/><stop stop-opacity="1" stop-color="rgb(36.070251%, 87.109375%, 89.936829%)" offset="0.0117188"/><stop stop-opacity="1" stop-color="rgb(35.928345%, 86.880493%, 89.849854%)" offset="0.015625"/><stop stop-opacity="1" stop-color="rgb(35.786438%, 86.650085%, 89.761353%)" offset="0.0195312"/><stop stop-opacity="1" stop-color="rgb(35.644531%, 86.421204%, 89.674377%)" offset="0.0234375"/><stop stop-opacity="1" stop-color="rgb(35.501099%, 86.190796%, 89.585876%)" offset="0.0273438"/><stop stop-opacity="1" stop-color="rgb(35.359192%, 85.961914%, 89.498901%)" offset="0.03125"/><stop stop-opacity="1" stop-color="rgb(35.215759%, 85.731506%, 89.411926%)" offset="0.0351562"/><stop stop-opacity="1" stop-color="rgb(35.073853%, 85.502625%, 89.324951%)" offset="0.0390625"/><stop stop-opacity="1" stop-color="rgb(34.93042%, 85.272217%, 89.23645%)" offset="0.0429688"/><stop stop-opacity="1" stop-color="rgb(34.788513%, 85.043335%, 89.149475%)" offset="0.046875"/><stop stop-opacity="1" stop-color="rgb(34.645081%, 84.812927%, 89.060974%)" offset="0.0507812"/><stop stop-opacity="1" stop-color="rgb(34.503174%, 84.584045%, 88.973999%)" offset="0.0546875"/><stop stop-opacity="1" stop-color="rgb(34.359741%, 84.353638%, 88.885498%)" offset="0.0585938"/><stop stop-opacity="1" stop-color="rgb(34.217834%, 84.124756%, 88.798523%)" offset="0.0625"/><stop stop-opacity="1" stop-color="rgb(34.074402%, 83.894348%, 88.711548%)" offset="0.0664062"/><stop stop-opacity="1" stop-color="rgb(33.932495%, 83.665466%, 88.624573%)" offset="0.0703125"/><stop stop-opacity="1" stop-color="rgb(33.789062%, 83.435059%, 88.536072%)" offset="0.0742188"/><stop stop-opacity="1" stop-color="rgb(33.647156%, 83.206177%, 88.449097%)" offset="0.078125"/><stop stop-opacity="1" stop-color="rgb(33.503723%, 82.975769%, 88.360596%)" offset="0.0820312"/><stop stop-opacity="1" stop-color="rgb(33.361816%, 82.745361%, 88.273621%)" offset="0.0859375"/><stop stop-opacity="1" stop-color="rgb(33.21991%, 82.514954%, 88.186646%)" offset="0.0898438"/><stop stop-opacity="1" stop-color="rgb(33.078003%, 82.286072%, 88.09967%)" offset="0.09375"/><stop stop-opacity="1" stop-color="rgb(32.93457%, 82.055664%, 88.011169%)" offset="0.0976562"/><stop stop-opacity="1" stop-color="rgb(32.792664%, 81.826782%, 87.924194%)" offset="0.101562"/><stop stop-opacity="1" stop-color="rgb(32.649231%, 81.596375%, 87.835693%)" offset="0.105469"/><stop stop-opacity="1" stop-color="rgb(32.507324%, 81.367493%, 87.748718%)" offset="0.109375"/><stop stop-opacity="1" stop-color="rgb(32.363892%, 81.137085%, 87.661743%)" offset="0.113281"/><stop stop-opacity="1" stop-color="rgb(32.221985%, 80.908203%, 87.574768%)" offset="0.117188"/><stop stop-opacity="1" stop-color="rgb(32.078552%, 80.677795%, 87.486267%)" offset="0.121094"/><stop stop-opacity="1" stop-color="rgb(31.936646%, 80.448914%, 87.399292%)" offset="0.125"/><stop stop-opacity="1" stop-color="rgb(31.793213%, 80.218506%, 87.310791%)" offset="0.128906"/><stop stop-opacity="1" stop-color="rgb(31.651306%, 79.989624%, 87.223816%)" offset="0.132812"/><stop stop-opacity="1" stop-color="rgb(31.507874%, 79.759216%, 87.136841%)" offset="0.136719"/><stop stop-opacity="1" stop-color="rgb(31.365967%, 79.530334%, 87.049866%)" offset="0.140625"/><stop stop-opacity="1" stop-color="rgb(31.222534%, 79.299927%, 86.961365%)" offset="0.144531"/><stop stop-opacity="1" stop-color="rgb(31.080627%, 79.071045%, 86.87439%)" offset="0.148438"/><stop stop-opacity="1" stop-color="rgb(30.938721%, 78.840637%, 86.785889%)" offset="0.152344"/><stop stop-opacity="1" stop-color="rgb(30.796814%, 78.611755%, 86.698914%)" offset="0.15625"/><stop stop-opacity="1" stop-color="rgb(30.653381%, 78.381348%, 86.611938%)" offset="0.160156"/><stop stop-opacity="1" stop-color="rgb(30.511475%, 78.152466%, 86.524963%)" offset="0.164062"/><stop stop-opacity="1" stop-color="rgb(30.368042%, 77.922058%, 86.436462%)" offset="0.167969"/><stop stop-opacity="1" stop-color="rgb(30.226135%, 77.693176%, 86.349487%)" offset="0.171875"/><stop stop-opacity="1" stop-color="rgb(30.082703%, 77.462769%, 86.260986%)" offset="0.175781"/><stop stop-opacity="1" stop-color="rgb(29.940796%, 77.233887%, 86.174011%)" offset="0.179688"/><stop stop-opacity="1" stop-color="rgb(29.797363%, 77.003479%, 86.08551%)" offset="0.183594"/><stop stop-opacity="1" stop-color="rgb(29.655457%, 76.774597%, 85.998535%)" offset="0.1875"/><stop stop-opacity="1" stop-color="rgb(29.512024%, 76.544189%, 85.91156%)" offset="0.191406"/><stop stop-opacity="1" stop-color="rgb(29.370117%, 76.315308%, 85.824585%)" offset="0.195312"/><stop stop-opacity="1" stop-color="rgb(29.226685%, 76.0849%, 85.736084%)" offset="0.199219"/><stop stop-opacity="1" stop-color="rgb(29.084778%, 75.856018%, 85.649109%)" offset="0.203125"/><stop stop-opacity="1" stop-color="rgb(28.941345%, 75.62561%, 85.560608%)" offset="0.207031"/><stop stop-opacity="1" stop-color="rgb(28.799438%, 75.396729%, 85.473633%)" offset="0.210938"/><stop stop-opacity="1" stop-color="rgb(28.657532%, 75.166321%, 85.386658%)" offset="0.214844"/><stop stop-opacity="1" stop-color="rgb(28.515625%, 74.937439%, 85.299683%)" offset="0.21875"/><stop stop-opacity="1" stop-color="rgb(28.372192%, 74.707031%, 85.211182%)" offset="0.222656"/><stop stop-opacity="1" stop-color="rgb(28.230286%, 74.476624%, 85.124207%)" offset="0.226562"/><stop stop-opacity="1" stop-color="rgb(28.086853%, 74.246216%, 85.035706%)" offset="0.230469"/><stop stop-opacity="1" stop-color="rgb(27.944946%, 74.017334%, 84.94873%)" offset="0.234375"/><stop stop-opacity="1" stop-color="rgb(27.801514%, 73.786926%, 84.861755%)" offset="0.238281"/><stop stop-opacity="1" stop-color="rgb(27.659607%, 73.558044%, 84.77478%)" offset="0.242188"/><stop stop-opacity="1" stop-color="rgb(27.516174%, 73.327637%, 84.686279%)" offset="0.246094"/><stop stop-opacity="1" stop-color="rgb(27.374268%, 73.098755%, 84.599304%)" offset="0.25"/><stop stop-opacity="1" stop-color="rgb(27.230835%, 72.868347%, 84.510803%)" offset="0.253906"/><stop stop-opacity="1" stop-color="rgb(27.088928%, 72.639465%, 84.423828%)" offset="0.257812"/><stop stop-opacity="1" stop-color="rgb(26.945496%, 72.409058%, 84.336853%)" offset="0.261719"/><stop stop-opacity="1" stop-color="rgb(26.803589%, 72.180176%, 84.249878%)" offset="0.265625"/><stop stop-opacity="1" stop-color="rgb(26.660156%, 71.949768%, 84.161377%)" offset="0.269531"/><stop stop-opacity="1" stop-color="rgb(26.51825%, 71.720886%, 84.074402%)" offset="0.273438"/><stop stop-opacity="1" stop-color="rgb(26.374817%, 71.490479%, 83.985901%)" offset="0.277344"/><stop stop-opacity="1" stop-color="rgb(26.23291%, 71.261597%, 83.898926%)" offset="0.28125"/><stop stop-opacity="1" stop-color="rgb(26.091003%, 71.031189%, 83.811951%)" offset="0.285156"/><stop stop-opacity="1" stop-color="rgb(25.949097%, 70.802307%, 83.724976%)" offset="0.289062"/><stop stop-opacity="1" stop-color="rgb(25.805664%, 70.571899%, 83.636475%)" offset="0.292969"/><stop stop-opacity="1" stop-color="rgb(25.663757%, 70.343018%, 83.5495%)" offset="0.296875"/><stop stop-opacity="1" stop-color="rgb(25.520325%, 70.11261%, 83.460999%)" offset="0.300781"/><stop stop-opacity="1" stop-color="rgb(25.378418%, 69.883728%, 83.374023%)" offset="0.304688"/><stop stop-opacity="1" stop-color="rgb(25.234985%, 69.65332%, 83.285522%)" offset="0.308594"/><stop stop-opacity="1" stop-color="rgb(25.093079%, 69.424438%, 83.198547%)" offset="0.3125"/><stop stop-opacity="1" stop-color="rgb(24.949646%, 69.194031%, 83.111572%)" offset="0.316406"/><stop stop-opacity="1" stop-color="rgb(24.807739%, 68.965149%, 83.024597%)" offset="0.320312"/><stop stop-opacity="1" stop-color="rgb(24.664307%, 68.734741%, 82.936096%)" offset="0.324219"/><stop stop-opacity="1" stop-color="rgb(24.5224%, 68.505859%, 82.849121%)" offset="0.328125"/><stop stop-opacity="1" stop-color="rgb(24.378967%, 68.275452%, 82.76062%)" offset="0.332031"/><stop stop-opacity="1" stop-color="rgb(24.237061%, 68.04657%, 82.673645%)" offset="0.335938"/><stop stop-opacity="1" stop-color="rgb(24.093628%, 67.816162%, 82.58667%)" offset="0.339844"/><stop stop-opacity="1" stop-color="rgb(23.951721%, 67.58728%, 82.499695%)" offset="0.34375"/><stop stop-opacity="1" stop-color="rgb(23.809814%, 67.356873%, 82.411194%)" offset="0.347656"/><stop stop-opacity="1" stop-color="rgb(23.667908%, 67.127991%, 82.324219%)" offset="0.351562"/><stop stop-opacity="1" stop-color="rgb(23.524475%, 66.897583%, 82.235718%)" offset="0.355469"/><stop stop-opacity="1" stop-color="rgb(23.382568%, 66.668701%, 82.148743%)" offset="0.359375"/><stop stop-opacity="1" stop-color="rgb(23.239136%, 66.438293%, 82.061768%)" offset="0.363281"/><stop stop-opacity="1" stop-color="rgb(23.097229%, 66.207886%, 81.974792%)" offset="0.367188"/><stop stop-opacity="1" stop-color="rgb(22.953796%, 65.977478%, 81.886292%)" offset="0.371094"/><stop stop-opacity="1" stop-color="rgb(22.81189%, 65.748596%, 81.799316%)" offset="0.375"/><stop stop-opacity="1" stop-color="rgb(22.668457%, 65.518188%, 81.710815%)" offset="0.378906"/><stop stop-opacity="1" stop-color="rgb(22.52655%, 65.289307%, 81.62384%)" offset="0.382812"/><stop stop-opacity="1" stop-color="rgb(22.383118%, 65.058899%, 81.536865%)" offset="0.386719"/><stop stop-opacity="1" stop-color="rgb(22.241211%, 64.830017%, 81.44989%)" offset="0.390625"/><stop stop-opacity="1" stop-color="rgb(22.097778%, 64.599609%, 81.361389%)" offset="0.394531"/><stop stop-opacity="1" stop-color="rgb(21.955872%, 64.370728%, 81.274414%)" offset="0.398438"/><stop stop-opacity="1" stop-color="rgb(21.812439%, 64.14032%, 81.185913%)" offset="0.402344"/><stop stop-opacity="1" stop-color="rgb(21.670532%, 63.911438%, 81.098938%)" offset="0.40625"/><stop stop-opacity="1" stop-color="rgb(21.528625%, 63.68103%, 81.011963%)" offset="0.410156"/><stop stop-opacity="1" stop-color="rgb(21.386719%, 63.452148%, 80.924988%)" offset="0.414062"/><stop stop-opacity="1" stop-color="rgb(21.243286%, 63.221741%, 80.836487%)" offset="0.417969"/><stop stop-opacity="1" stop-color="rgb(21.101379%, 62.992859%, 80.749512%)" offset="0.421875"/><stop stop-opacity="1" stop-color="rgb(20.957947%, 62.762451%, 80.661011%)" offset="0.425781"/><stop stop-opacity="1" stop-color="rgb(20.81604%, 62.533569%, 80.574036%)" offset="0.429688"/><stop stop-opacity="1" stop-color="rgb(20.672607%, 62.303162%, 80.485535%)" offset="0.433594"/><stop stop-opacity="1" stop-color="rgb(20.530701%, 62.07428%, 80.39856%)" offset="0.4375"/><stop stop-opacity="1" stop-color="rgb(20.387268%, 61.843872%, 80.311584%)" offset="0.441406"/><stop stop-opacity="1" stop-color="rgb(20.245361%, 61.61499%, 80.224609%)" offset="0.445312"/><stop stop-opacity="1" stop-color="rgb(20.101929%, 61.384583%, 80.136108%)" offset="0.449219"/><stop stop-opacity="1" stop-color="rgb(19.960022%, 61.155701%, 80.049133%)" offset="0.453125"/><stop stop-opacity="1" stop-color="rgb(19.816589%, 60.925293%, 79.960632%)" offset="0.457031"/><stop stop-opacity="1" stop-color="rgb(19.674683%, 60.696411%, 79.873657%)" offset="0.460938"/><stop stop-opacity="1" stop-color="rgb(19.53125%, 60.466003%, 79.786682%)" offset="0.464844"/><stop stop-opacity="1" stop-color="rgb(19.389343%, 60.237122%, 79.699707%)" offset="0.46875"/><stop stop-opacity="1" stop-color="rgb(19.245911%, 60.006714%, 79.611206%)" offset="0.472656"/><stop stop-opacity="1" stop-color="rgb(19.104004%, 59.777832%, 79.524231%)" offset="0.476562"/><stop stop-opacity="1" stop-color="rgb(18.962097%, 59.547424%, 79.43573%)" offset="0.480469"/><stop stop-opacity="1" stop-color="rgb(18.82019%, 59.318542%, 79.348755%)" offset="0.484375"/><stop stop-opacity="1" stop-color="rgb(18.676758%, 59.088135%, 79.26178%)" offset="0.488281"/><stop stop-opacity="1" stop-color="rgb(18.534851%, 58.859253%, 79.174805%)" offset="0.492188"/><stop stop-opacity="1" stop-color="rgb(18.391418%, 58.628845%, 79.086304%)" offset="0.496094"/><stop stop-opacity="1" stop-color="rgb(18.249512%, 58.399963%, 78.999329%)" offset="0.5"/><stop stop-opacity="1" stop-color="rgb(18.106079%, 58.169556%, 78.910828%)" offset="0.503906"/><stop stop-opacity="1" stop-color="rgb(17.964172%, 57.939148%, 78.823853%)" offset="0.507812"/><stop stop-opacity="1" stop-color="rgb(17.82074%, 57.70874%, 78.736877%)" offset="0.511719"/><stop stop-opacity="1" stop-color="rgb(17.678833%, 57.479858%, 78.649902%)" offset="0.515625"/><stop stop-opacity="1" stop-color="rgb(17.5354%, 57.249451%, 78.561401%)" offset="0.519531"/><stop stop-opacity="1" stop-color="rgb(17.393494%, 57.020569%, 78.474426%)" offset="0.523438"/><stop stop-opacity="1" stop-color="rgb(17.250061%, 56.790161%, 78.385925%)" offset="0.527344"/><stop stop-opacity="1" stop-color="rgb(17.108154%, 56.561279%, 78.29895%)" offset="0.53125"/><stop stop-opacity="1" stop-color="rgb(16.964722%, 56.330872%, 78.211975%)" offset="0.535156"/><stop stop-opacity="1" stop-color="rgb(16.822815%, 56.10199%, 78.125%)" offset="0.539062"/><stop stop-opacity="1" stop-color="rgb(16.680908%, 55.871582%, 78.036499%)" offset="0.542969"/><stop stop-opacity="1" stop-color="rgb(16.539001%, 55.6427%, 77.949524%)" offset="0.546875"/><stop stop-opacity="1" stop-color="rgb(16.395569%, 55.412292%, 77.861023%)" offset="0.550781"/><stop stop-opacity="1" stop-color="rgb(16.253662%, 55.183411%, 77.774048%)" offset="0.554688"/><stop stop-opacity="1" stop-color="rgb(16.110229%, 54.953003%, 77.685547%)" offset="0.558594"/><stop stop-opacity="1" stop-color="rgb(15.968323%, 54.724121%, 77.598572%)" offset="0.5625"/><stop stop-opacity="1" stop-color="rgb(15.82489%, 54.493713%, 77.511597%)" offset="0.566406"/><stop stop-opacity="1" stop-color="rgb(15.682983%, 54.264832%, 77.424622%)" offset="0.570312"/><stop stop-opacity="1" stop-color="rgb(15.539551%, 54.034424%, 77.336121%)" offset="0.574219"/><stop stop-opacity="1" stop-color="rgb(15.397644%, 53.805542%, 77.249146%)" offset="0.578125"/><stop stop-opacity="1" stop-color="rgb(15.254211%, 53.575134%, 77.160645%)" offset="0.582031"/><stop stop-opacity="1" stop-color="rgb(15.112305%, 53.346252%, 77.073669%)" offset="0.585938"/><stop stop-opacity="1" stop-color="rgb(14.968872%, 53.115845%, 76.986694%)" offset="0.589844"/><stop stop-opacity="1" stop-color="rgb(14.826965%, 52.886963%, 76.899719%)" offset="0.59375"/><stop stop-opacity="1" stop-color="rgb(14.683533%, 52.656555%, 76.811218%)" offset="0.597656"/><stop stop-opacity="1" stop-color="rgb(14.541626%, 52.427673%, 76.724243%)" offset="0.601562"/><stop stop-opacity="1" stop-color="rgb(14.399719%, 52.197266%, 76.635742%)" offset="0.605469"/><stop stop-opacity="1" stop-color="rgb(14.257812%, 51.968384%, 76.548767%)" offset="0.609375"/><stop stop-opacity="1" stop-color="rgb(14.11438%, 51.737976%, 76.461792%)" offset="0.613281"/><stop stop-opacity="1" stop-color="rgb(13.972473%, 51.509094%, 76.374817%)" offset="0.617188"/><stop stop-opacity="1" stop-color="rgb(13.829041%, 51.278687%, 76.286316%)" offset="0.621094"/><stop stop-opacity="1" stop-color="rgb(13.687134%, 51.049805%, 76.199341%)" offset="0.625"/><stop stop-opacity="1" stop-color="rgb(13.543701%, 50.819397%, 76.11084%)" offset="0.628906"/><stop stop-opacity="1" stop-color="rgb(13.401794%, 50.590515%, 76.023865%)" offset="0.632812"/><stop stop-opacity="1" stop-color="rgb(13.258362%, 50.360107%, 75.93689%)" offset="0.636719"/><stop stop-opacity="1" stop-color="rgb(13.116455%, 50.131226%, 75.849915%)" offset="0.640625"/><stop stop-opacity="1" stop-color="rgb(12.973022%, 49.900818%, 75.761414%)" offset="0.644531"/><stop stop-opacity="1" stop-color="rgb(12.831116%, 49.67041%, 75.674438%)" offset="0.648438"/><stop stop-opacity="1" stop-color="rgb(12.687683%, 49.440002%, 75.585938%)" offset="0.652344"/><stop stop-opacity="1" stop-color="rgb(12.545776%, 49.211121%, 75.498962%)" offset="0.65625"/><stop stop-opacity="1" stop-color="rgb(12.402344%, 48.980713%, 75.410461%)" offset="0.660156"/><stop stop-opacity="1" stop-color="rgb(12.260437%, 48.751831%, 75.323486%)" offset="0.664062"/><stop stop-opacity="1" stop-color="rgb(12.117004%, 48.521423%, 75.236511%)" offset="0.667969"/><stop stop-opacity="1" stop-color="rgb(11.975098%, 48.292542%, 75.149536%)" offset="0.671875"/><stop stop-opacity="1" stop-color="rgb(11.833191%, 48.062134%, 75.061035%)" offset="0.675781"/><stop stop-opacity="1" stop-color="rgb(11.691284%, 47.833252%, 74.97406%)" offset="0.679688"/><stop stop-opacity="1" stop-color="rgb(11.547852%, 47.602844%, 74.885559%)" offset="0.683594"/><stop stop-opacity="1" stop-color="rgb(11.405945%, 47.373962%, 74.798584%)" offset="0.6875"/><stop stop-opacity="1" stop-color="rgb(11.262512%, 47.143555%, 74.711609%)" offset="0.691406"/><stop stop-opacity="1" stop-color="rgb(11.120605%, 46.914673%, 74.624634%)" offset="0.695312"/><stop stop-opacity="1" stop-color="rgb(10.977173%, 46.684265%, 74.536133%)" offset="0.699219"/><stop stop-opacity="1" stop-color="rgb(10.835266%, 46.455383%, 74.449158%)" offset="0.703125"/><stop stop-opacity="1" stop-color="rgb(10.691833%, 46.224976%, 74.360657%)" offset="0.707031"/><stop stop-opacity="1" stop-color="rgb(10.549927%, 45.996094%, 74.273682%)" offset="0.710938"/><stop stop-opacity="1" stop-color="rgb(10.406494%, 45.765686%, 74.186707%)" offset="0.714844"/><stop stop-opacity="1" stop-color="rgb(10.264587%, 45.536804%, 74.099731%)" offset="0.71875"/><stop stop-opacity="1" stop-color="rgb(10.121155%, 45.306396%, 74.01123%)" offset="0.722656"/><stop stop-opacity="1" stop-color="rgb(9.979248%, 45.077515%, 73.924255%)" offset="0.726562"/><stop stop-opacity="1" stop-color="rgb(9.835815%, 44.847107%, 73.835754%)" offset="0.730469"/><stop stop-opacity="1" stop-color="rgb(9.693909%, 44.618225%, 73.748779%)" offset="0.734375"/><stop stop-opacity="1" stop-color="rgb(9.552002%, 44.387817%, 73.661804%)" offset="0.738281"/><stop stop-opacity="1" stop-color="rgb(9.410095%, 44.158936%, 73.574829%)" offset="0.742188"/><stop stop-opacity="1" stop-color="rgb(9.266663%, 43.928528%, 73.486328%)" offset="0.746094"/><stop stop-opacity="1" stop-color="rgb(9.124756%, 43.699646%, 73.399353%)" offset="0.75"/><stop stop-opacity="1" stop-color="rgb(8.981323%, 43.469238%, 73.310852%)" offset="0.753906"/><stop stop-opacity="1" stop-color="rgb(8.839417%, 43.240356%, 73.223877%)" offset="0.757812"/><stop stop-opacity="1" stop-color="rgb(8.695984%, 43.009949%, 73.136902%)" offset="0.761719"/><stop stop-opacity="1" stop-color="rgb(8.554077%, 42.781067%, 73.049927%)" offset="0.765625"/><stop stop-opacity="1" stop-color="rgb(8.410645%, 42.550659%, 72.961426%)" offset="0.769531"/><stop stop-opacity="1" stop-color="rgb(8.268738%, 42.321777%, 72.874451%)" offset="0.773438"/><stop stop-opacity="1" stop-color="rgb(8.125305%, 42.09137%, 72.78595%)" offset="0.777344"/><stop stop-opacity="1" stop-color="rgb(7.983398%, 41.862488%, 72.698975%)" offset="0.78125"/><stop stop-opacity="1" stop-color="rgb(7.839966%, 41.63208%, 72.610474%)" offset="0.785156"/><stop stop-opacity="1" stop-color="rgb(7.698059%, 41.401672%, 72.523499%)" offset="0.789062"/><stop stop-opacity="1" stop-color="rgb(7.554626%, 41.171265%, 72.436523%)" offset="0.792969"/><stop stop-opacity="1" stop-color="rgb(7.41272%, 40.942383%, 72.349548%)" offset="0.796875"/><stop stop-opacity="1" stop-color="rgb(7.270813%, 40.711975%, 72.261047%)" offset="0.800781"/><stop stop-opacity="1" stop-color="rgb(7.128906%, 40.483093%, 72.174072%)" offset="0.804688"/><stop stop-opacity="1" stop-color="rgb(6.985474%, 40.252686%, 72.085571%)" offset="0.808594"/><stop stop-opacity="1" stop-color="rgb(6.843567%, 40.023804%, 71.998596%)" offset="0.8125"/><stop stop-opacity="1" stop-color="rgb(6.700134%, 39.793396%, 71.911621%)" offset="0.816406"/><stop stop-opacity="1" stop-color="rgb(6.558228%, 39.564514%, 71.824646%)" offset="0.820312"/><stop stop-opacity="1" stop-color="rgb(6.414795%, 39.334106%, 71.736145%)" offset="0.824219"/><stop stop-opacity="1" stop-color="rgb(6.272888%, 39.105225%, 71.64917%)" offset="0.828125"/><stop stop-opacity="1" stop-color="rgb(6.129456%, 38.874817%, 71.560669%)" offset="0.832031"/><stop stop-opacity="1" stop-color="rgb(5.987549%, 38.645935%, 71.473694%)" offset="0.835938"/><stop stop-opacity="1" stop-color="rgb(5.844116%, 38.415527%, 71.386719%)" offset="0.839844"/><stop stop-opacity="1" stop-color="rgb(5.702209%, 38.186646%, 71.299744%)" offset="0.84375"/><stop stop-opacity="1" stop-color="rgb(5.558777%, 37.956238%, 71.211243%)" offset="0.847656"/><stop stop-opacity="1" stop-color="rgb(5.41687%, 37.727356%, 71.124268%)" offset="0.851562"/><stop stop-opacity="1" stop-color="rgb(5.273438%, 37.496948%, 71.035767%)" offset="0.855469"/><stop stop-opacity="1" stop-color="rgb(5.131531%, 37.268066%, 70.948792%)" offset="0.859375"/><stop stop-opacity="1" stop-color="rgb(4.988098%, 37.037659%, 70.861816%)" offset="0.863281"/><stop stop-opacity="1" stop-color="rgb(4.846191%, 36.808777%, 70.774841%)" offset="0.867188"/><stop stop-opacity="1" stop-color="rgb(4.704285%, 36.578369%, 70.68634%)" offset="0.871094"/><stop stop-opacity="1" stop-color="rgb(4.562378%, 36.349487%, 70.599365%)" offset="0.875"/><stop stop-opacity="1" stop-color="rgb(4.418945%, 36.11908%, 70.510864%)" offset="0.878906"/><stop stop-opacity="1" stop-color="rgb(4.277039%, 35.890198%, 70.423889%)" offset="0.882812"/><stop stop-opacity="1" stop-color="rgb(4.133606%, 35.65979%, 70.336914%)" offset="0.886719"/><stop stop-opacity="1" stop-color="rgb(3.991699%, 35.430908%, 70.249939%)" offset="0.890625"/><stop stop-opacity="1" stop-color="rgb(3.848267%, 35.2005%, 70.161438%)" offset="0.894531"/><stop stop-opacity="1" stop-color="rgb(3.70636%, 34.971619%, 70.074463%)" offset="0.898438"/><stop stop-opacity="1" stop-color="rgb(3.562927%, 34.741211%, 69.985962%)" offset="0.902344"/><stop stop-opacity="1" stop-color="rgb(3.421021%, 34.512329%, 69.898987%)" offset="0.90625"/><stop stop-opacity="1" stop-color="rgb(3.277588%, 34.281921%, 69.810486%)" offset="0.910156"/><stop stop-opacity="1" stop-color="rgb(3.135681%, 34.05304%, 69.723511%)" offset="0.914062"/><stop stop-opacity="1" stop-color="rgb(2.992249%, 33.822632%, 69.636536%)" offset="0.917969"/><stop stop-opacity="1" stop-color="rgb(2.850342%, 33.59375%, 69.549561%)" offset="0.921875"/><stop stop-opacity="1" stop-color="rgb(2.706909%, 33.363342%, 69.46106%)" offset="0.925781"/><stop stop-opacity="1" stop-color="rgb(2.565002%, 33.132935%, 69.374084%)" offset="0.929688"/><stop stop-opacity="1" stop-color="rgb(2.423096%, 32.902527%, 69.285583%)" offset="0.933594"/><stop stop-opacity="1" stop-color="rgb(2.281189%, 32.673645%, 69.198608%)" offset="0.9375"/><stop stop-opacity="1" stop-color="rgb(2.137756%, 32.443237%, 69.111633%)" offset="0.941406"/><stop stop-opacity="1" stop-color="rgb(1.99585%, 32.214355%, 69.024658%)" offset="0.945312"/><stop stop-opacity="1" stop-color="rgb(1.852417%, 31.983948%, 68.936157%)" offset="0.949219"/><stop stop-opacity="1" stop-color="rgb(1.71051%, 31.755066%, 68.849182%)" offset="0.953125"/><stop stop-opacity="1" stop-color="rgb(1.567078%, 31.524658%, 68.760681%)" offset="0.957031"/><stop stop-opacity="1" stop-color="rgb(1.425171%, 31.295776%, 68.673706%)" offset="0.960938"/><stop stop-opacity="1" stop-color="rgb(1.281738%, 31.065369%, 68.586731%)" offset="0.964844"/><stop stop-opacity="1" stop-color="rgb(1.139832%, 30.836487%, 68.499756%)" offset="0.96875"/><stop stop-opacity="1" stop-color="rgb(0.996399%, 30.606079%, 68.411255%)" offset="0.972656"/><stop stop-opacity="1" stop-color="rgb(0.854492%, 30.377197%, 68.32428%)" offset="0.976562"/><stop stop-opacity="1" stop-color="rgb(0.71106%, 30.14679%, 68.235779%)" offset="0.980469"/><stop stop-opacity="1" stop-color="rgb(0.569153%, 29.917908%, 68.148804%)" offset="0.984375"/><stop stop-opacity="1" stop-color="rgb(0.42572%, 29.6875%, 68.061829%)" offset="0.988281"/><stop stop-opacity="1" stop-color="rgb(0.283813%, 29.458618%, 67.974854%)" offset="0.992188"/><stop stop-opacity="1" stop-color="rgb(0.141907%, 29.22821%, 67.886353%)" offset="0.996094"/><stop stop-opacity="1" stop-color="rgb(0%, 28.999329%, 67.799377%)" offset="1"/></linearGradient><clipPath id="dc95625e44"><path d="M 82.175781 189.164062 L 113.890625 189.164062 L 113.890625 277.535156 L 82.175781 277.535156 Z M 82.175781 189.164062 " clip-rule="nonzero"/></clipPath><clipPath id="42becec1e9"><path d="M 237.371094 176.371094 L 342.363281 176.371094 L 342.363281 201.953125 L 237.371094 201.953125 Z M 237.371094 176.371094 " clip-rule="nonzero"/></clipPath></defs><g clip-path="url(#9948ffd1ed)"><path fill="#ffffff" d="M 0 0.214844 L 349 0.214844 L 349 299.785156 L 0 299.785156 Z M 0 0.214844 " fill-opacity="1" fill-rule="nonzero"/></g><g clip-path="url(#538a3a321f)"><g clip-path="url(#116f70d736)"><path fill="url(#266b4f685f)" d="M 42.789062 0.214844 L 42.789062 299.785156 L 342.363281 299.785156 L 342.363281 0.214844 Z M 42.789062 0.214844 " fill-rule="nonzero"/></g></g><g fill="#ffffff" fill-opacity="1"><g transform="translate(72.891507, 201.826187)"><g><path d="M 103.765625 0 L 103.765625 -38.703125 C 103.765625 -43.484375 103.945312 -48.394531 104.3125 -53.4375 C 104.675781 -58.488281 105.066406 -62.726562 105.484375 -66.15625 C 105.898438 -69.59375 106.160156 -71.78125 106.265625 -72.71875 L 105.640625 -72.71875 L 85.828125 0 L 58.828125 0 L 38.859375 -72.5625 L 38.234375 -72.5625 C 38.335938 -71.625 38.625 -69.460938 39.09375 -66.078125 C 39.5625 -62.703125 40.003906 -58.488281 40.421875 -53.4375 C 40.835938 -48.394531 41.046875 -43.484375 41.046875 -38.703125 L 41.046875 0 L 9.359375 0 L 9.359375 -107.359375 L 58.046875 -107.359375 L 74.28125 -45.40625 L 74.90625 -45.40625 L 90.96875 -107.359375 L 137.953125 -107.359375 L 137.953125 0 Z M 103.765625 0 "/></g></g></g><g clip-path="url(#dc95625e44)"><path fill="#ffffff" d="M 82.175781 189.164062 L 113.890625 189.164062 L 113.890625 277.488281 L 82.175781 277.488281 Z M 82.175781 189.164062 " fill-opacity="1" fill-rule="nonzero"/></g><g clip-path="url(#42becec1e9)"><path fill="#ffffff" d="M 237.371094 176.371094 L 342.40625 176.371094 L 342.40625 201.953125 L 237.371094 201.953125 Z M 237.371094 176.371094 " fill-opacity="1" fill-rule="nonzero"/></g><path stroke-linecap="butt" transform="matrix(0.748929, -0.000000000000000372, 0.000000000000000372, 0.748929, 82.176813, 79.316112)" fill="none" stroke-linejoin="miter" d="M -0.00137787 1.998038 L 65.185499 1.998038 " stroke="#ffffff" stroke-width="4" stroke-opacity="1" stroke-miterlimit="4"/><g fill="#ffffff" fill-opacity="1"><g transform="translate(121.825346, 233.860368)"><g><path d="M 12.25 0 L 11.59375 -8.0625 L 11.515625 -8.0625 L 8.734375 -0.078125 L 6.875 -0.078125 L 4.09375 -8.0625 L 4.015625 -8.0625 L 3.359375 0 L 0.265625 0 L 1.484375 -13.609375 L 4.78125 -13.609375 L 7.796875 -5.765625 L 10.828125 -13.609375 L 14.125 -13.609375 L 15.34375 0 Z M 12.25 0 "/></g></g></g><g fill="#ffffff" fill-opacity="1"><g transform="translate(138.495584, 233.860368)"><g><path d="M 0.375 -6.8125 C 0.375 -8.78125 1.046875 -10.445312 2.390625 -11.8125 C 3.734375 -13.175781 5.351562 -13.859375 7.25 -13.859375 C 9.144531 -13.859375 10.757812 -13.175781 12.09375 -11.8125 C 13.425781 -10.457031 14.09375 -8.789062 14.09375 -6.8125 C 14.09375 -4.820312 13.4375 -3.144531 12.125 -1.78125 C 10.8125 -0.425781 9.1875 0.25 7.25 0.25 C 5.25 0.25 3.601562 -0.421875 2.3125 -1.765625 C 1.019531 -3.117188 0.375 -4.800781 0.375 -6.8125 Z M 3.734375 -6.8125 C 3.734375 -6.09375 3.84375 -5.4375 4.0625 -4.84375 C 4.28125 -4.257812 4.660156 -3.765625 5.203125 -3.359375 C 5.753906 -2.953125 6.4375 -2.75 7.25 -2.75 C 8.394531 -2.75 9.257812 -3.144531 9.84375 -3.9375 C 10.4375 -4.726562 10.734375 -5.6875 10.734375 -6.8125 C 10.734375 -7.925781 10.429688 -8.878906 9.828125 -9.671875 C 9.234375 -10.472656 8.375 -10.875 7.25 -10.875 C 6.125 -10.875 5.253906 -10.472656 4.640625 -9.671875 C 4.035156 -8.878906 3.734375 -7.925781 3.734375 -6.8125 Z M 3.734375 -6.8125 "/></g></g></g><g fill="#ffffff" fill-opacity="1"><g transform="translate(154.028145, 233.860368)"><g><path d="M 4.09375 -5.46875 L 4.09375 0 L 0.984375 0 L 0.984375 -13.609375 L 4.09375 -13.609375 L 4.09375 -8.1875 L 8.484375 -8.1875 L 8.484375 -13.609375 L 11.578125 -13.609375 L 11.578125 0 L 8.484375 0 L 8.484375 -5.46875 Z M 4.09375 -5.46875 "/></g></g></g><g fill="#ffffff" fill-opacity="1"><g transform="translate(167.66457, 233.860368)"><g><path d="M 7.90625 -13.609375 L 13.390625 0 L 10.0625 0 L 9.0625 -2.71875 L 3.875 -2.71875 L 2.875 0 L -0.46875 0 L 5.03125 -13.609375 Z M 8 -5.4375 L 6.484375 -9.40625 L 6.453125 -9.40625 L 4.9375 -5.4375 Z M 8 -5.4375 "/></g></g></g><g fill="#ffffff" fill-opacity="1"><g transform="translate(181.663732, 233.860368)"><g><path d="M 12.25 0 L 11.59375 -8.0625 L 11.515625 -8.0625 L 8.734375 -0.078125 L 6.875 -0.078125 L 4.09375 -8.0625 L 4.015625 -8.0625 L 3.359375 0 L 0.265625 0 L 1.484375 -13.609375 L 4.78125 -13.609375 L 7.796875 -5.765625 L 10.828125 -13.609375 L 14.125 -13.609375 L 15.34375 0 Z M 12.25 0 "/></g></g></g><g fill="#ffffff" fill-opacity="1"><g transform="translate(198.333968, 233.860368)"><g><path d="M 8.78125 -13.609375 L 8.78125 -10.890625 L 4.09375 -10.890625 L 4.09375 -8.1875 L 8.578125 -8.1875 L 8.578125 -5.46875 L 4.09375 -5.46875 L 4.09375 -2.71875 L 8.78125 -2.71875 L 8.78125 0 L 0.984375 0 L 0.984375 -13.609375 Z M 8.78125 -13.609375 "/></g></g></g><g fill="#ffffff" fill-opacity="1"><g transform="translate(208.969557, 233.860368)"><g><path d="M 0.984375 -13.609375 L 4.9375 -13.609375 C 6.820312 -13.609375 8.4375 -12.960938 9.78125 -11.671875 C 11.125 -10.378906 11.796875 -8.757812 11.796875 -6.8125 C 11.796875 -4.851562 11.125 -3.226562 9.78125 -1.9375 C 8.445312 -0.644531 6.832031 0 4.9375 0 L 0.984375 0 Z M 4.09375 -2.765625 L 4.578125 -2.765625 C 5.703125 -2.765625 6.625 -3.144531 7.34375 -3.90625 C 8.070312 -4.675781 8.441406 -5.640625 8.453125 -6.796875 C 8.453125 -7.953125 8.085938 -8.914062 7.359375 -9.6875 C 6.640625 -10.457031 5.710938 -10.84375 4.578125 -10.84375 L 4.09375 -10.84375 Z M 4.09375 -2.765625 "/></g></g></g><g fill="#ffffff" fill-opacity="1"><g transform="translate(222.210271, 233.860368)"><g/></g></g><g fill="#ffffff" fill-opacity="1"><g transform="translate(227.784027, 233.860368)"><g><path d="M 0.984375 -13.609375 L 5.21875 -13.609375 C 6.488281 -13.609375 7.503906 -13.335938 8.265625 -12.796875 C 9.023438 -12.253906 9.40625 -11.367188 9.40625 -10.140625 C 9.40625 -8.773438 8.835938 -7.804688 7.703125 -7.234375 C 9.640625 -6.890625 10.609375 -5.742188 10.609375 -3.796875 C 10.609375 -2.648438 10.210938 -1.726562 9.421875 -1.03125 C 8.628906 -0.34375 7.539062 0 6.15625 0 L 0.984375 0 Z M 4.09375 -8.28125 L 4.34375 -8.28125 C 5.03125 -8.28125 5.546875 -8.398438 5.890625 -8.640625 C 6.234375 -8.890625 6.40625 -9.285156 6.40625 -9.828125 C 6.40625 -10.753906 5.71875 -11.21875 4.34375 -11.21875 L 4.09375 -11.21875 Z M 4.09375 -2.390625 L 5.0625 -2.390625 C 6.582031 -2.390625 7.34375 -2.894531 7.34375 -3.90625 C 7.34375 -4.507812 7.148438 -4.941406 6.765625 -5.203125 C 6.390625 -5.472656 5.820312 -5.609375 5.0625 -5.609375 L 4.09375 -5.609375 Z M 4.09375 -2.390625 "/></g></g></g><g fill="#ffffff" fill-opacity="1"><g transform="translate(239.837598, 233.860368)"><g><path d="M 7.90625 -13.609375 L 13.390625 0 L 10.0625 0 L 9.0625 -2.71875 L 3.875 -2.71875 L 2.875 0 L -0.46875 0 L 5.03125 -13.609375 Z M 8 -5.4375 L 6.484375 -9.40625 L 6.453125 -9.40625 L 4.9375 -5.4375 Z M 8 -5.4375 "/></g></g></g><g fill="#ffffff" fill-opacity="1"><g transform="translate(253.836766, 233.860368)"><g><path d="M 4.09375 -5.46875 L 4.09375 0 L 0.984375 0 L 0.984375 -13.609375 L 4.09375 -13.609375 L 4.09375 -8.1875 L 8.484375 -8.1875 L 8.484375 -13.609375 L 11.578125 -13.609375 L 11.578125 0 L 8.484375 0 L 8.484375 -5.46875 Z M 4.09375 -5.46875 "/></g></g></g><g fill="#ffffff" fill-opacity="1"><g transform="translate(267.473194, 233.860368)"><g><path d="M 13.296875 -7.625 L 13.296875 -4.671875 C 12.941406 -3.054688 12.171875 -1.832031 10.984375 -1 C 9.796875 -0.164062 8.472656 0.25 7.015625 0.25 C 5.171875 0.25 3.601562 -0.4375 2.3125 -1.8125 C 1.019531 -3.1875 0.375 -4.847656 0.375 -6.796875 C 0.375 -8.773438 1.003906 -10.445312 2.265625 -11.8125 C 3.535156 -13.175781 5.117188 -13.859375 7.015625 -13.859375 C 9.222656 -13.859375 10.972656 -13.082031 12.265625 -11.53125 L 10.234375 -9.3125 C 9.503906 -10.476562 8.488281 -11.0625 7.1875 -11.0625 C 6.238281 -11.0625 5.425781 -10.644531 4.75 -9.8125 C 4.070312 -8.976562 3.734375 -7.972656 3.734375 -6.796875 C 3.734375 -5.640625 4.070312 -4.648438 4.75 -3.828125 C 5.425781 -3.015625 6.238281 -2.609375 7.1875 -2.609375 C 7.976562 -2.609375 8.664062 -2.847656 9.25 -3.328125 C 9.84375 -3.804688 10.140625 -4.441406 10.140625 -5.234375 L 7.015625 -5.234375 L 7.015625 -7.625 Z M 13.296875 -7.625 "/></g></g></g><g fill="#ffffff" fill-opacity="1"><g transform="translate(282.21433, 233.860368)"><g><path d="M 7.90625 -13.609375 L 13.390625 0 L 10.0625 0 L 9.0625 -2.71875 L 3.875 -2.71875 L 2.875 0 L -0.46875 0 L 5.03125 -13.609375 Z M 8 -5.4375 L 6.484375 -9.40625 L 6.453125 -9.40625 L 4.9375 -5.4375 Z M 8 -5.4375 "/></g></g></g><g fill="#ffffff" fill-opacity="1"><g transform="translate(296.213498, 233.860368)"><g><path d="M 0.125 -10.890625 L 0.125 -13.609375 L 9.703125 -13.609375 L 9.703125 -10.890625 L 6.46875 -10.890625 L 6.46875 0 L 3.359375 0 L 3.359375 -10.890625 Z M 0.125 -10.890625 "/></g></g></g><g fill="#ffffff" fill-opacity="1"><g transform="translate(146.244907, 246.140428)"><g><path d="M 2.484375 0 L 1.609375 0 L 0.3125 -5.703125 L 0.96875 -5.703125 L 2.046875 -0.984375 L 2.140625 -0.984375 L 3.421875 -5.703125 L 4.03125 -5.703125 L 5.3125 -0.984375 L 5.421875 -0.984375 L 6.484375 -5.703125 L 7.140625 -5.703125 L 5.828125 0 L 4.953125 0 L 3.765625 -4.3125 L 3.6875 -4.3125 Z M 2.484375 0 "/></g></g></g><g fill="#ffffff" fill-opacity="1"><g transform="translate(158.412503, 246.140428)"><g><path d="M 1.53125 -2.6875 L 1.53125 -0.546875 L 4.4375 -0.546875 L 4.4375 0 L 0.859375 0 L 0.859375 -5.703125 L 4.375 -5.703125 L 4.375 -5.140625 L 1.53125 -5.140625 L 1.53125 -3.234375 L 4.03125 -3.234375 L 4.03125 -2.6875 Z M 1.53125 -2.6875 "/></g></g></g><g fill="#ffffff" fill-opacity="1"><g transform="translate(167.951053, 246.140428)"><g><path d="M 0.859375 0 L 0.859375 -5.703125 L 3.015625 -5.703125 C 3.367188 -5.703125 3.664062 -5.644531 3.90625 -5.53125 C 4.15625 -5.414062 4.34375 -5.253906 4.46875 -5.046875 C 4.59375 -4.847656 4.65625 -4.601562 4.65625 -4.3125 C 4.65625 -4.070312 4.585938 -3.847656 4.453125 -3.640625 C 4.316406 -3.441406 4.125 -3.285156 3.875 -3.171875 L 3.875 -3.09375 C 4.25 -3 4.535156 -2.828125 4.734375 -2.578125 C 4.929688 -2.335938 5.03125 -2.03125 5.03125 -1.65625 C 5.03125 -1.125 4.875 -0.710938 4.5625 -0.421875 C 4.25 -0.140625 3.789062 0 3.1875 0 Z M 2.984375 -3.3125 C 3.304688 -3.3125 3.550781 -3.390625 3.71875 -3.546875 C 3.894531 -3.710938 3.984375 -3.941406 3.984375 -4.234375 C 3.984375 -4.535156 3.898438 -4.757812 3.734375 -4.90625 C 3.566406 -5.0625 3.316406 -5.140625 2.984375 -5.140625 L 1.53125 -5.140625 L 1.53125 -3.3125 Z M 3.140625 -0.546875 C 3.941406 -0.546875 4.34375 -0.914062 4.34375 -1.65625 C 4.34375 -2.382812 3.941406 -2.75 3.140625 -2.75 L 1.53125 -2.75 L 1.53125 -0.546875 Z M 3.140625 -0.546875 "/></g></g></g><g fill="#ffffff" fill-opacity="1"><g transform="translate(178.160517, 246.140428)"><g/></g></g><g fill="#ffffff" fill-opacity="1"><g transform="translate(184.839883, 246.140428)"><g><path d="M 2.703125 -5.703125 C 3.285156 -5.703125 3.78125 -5.597656 4.1875 -5.390625 C 4.601562 -5.179688 4.921875 -4.863281 5.140625 -4.4375 C 5.367188 -4.019531 5.484375 -3.488281 5.484375 -2.84375 C 5.484375 -2.207031 5.367188 -1.675781 5.140625 -1.25 C 4.921875 -0.832031 4.601562 -0.519531 4.1875 -0.3125 C 3.78125 -0.101562 3.285156 0 2.703125 0 L 0.859375 0 L 0.859375 -5.703125 Z M 2.640625 -0.5625 C 3.117188 -0.5625 3.507812 -0.632812 3.8125 -0.78125 C 4.125 -0.9375 4.359375 -1.179688 4.515625 -1.515625 C 4.679688 -1.847656 4.765625 -2.289062 4.765625 -2.84375 C 4.765625 -3.40625 4.679688 -3.851562 4.515625 -4.1875 C 4.359375 -4.519531 4.125 -4.757812 3.8125 -4.90625 C 3.507812 -5.050781 3.117188 -5.125 2.640625 -5.125 L 1.53125 -5.125 L 1.53125 -0.5625 Z M 2.640625 -0.5625 "/></g></g></g><g fill="#ffffff" fill-opacity="1"><g transform="translate(195.622741, 246.140428)"><g><path d="M 1.53125 -2.6875 L 1.53125 -0.546875 L 4.4375 -0.546875 L 4.4375 0 L 0.859375 0 L 0.859375 -5.703125 L 4.375 -5.703125 L 4.375 -5.140625 L 1.53125 -5.140625 L 1.53125 -3.234375 L 4.03125 -3.234375 L 4.03125 -2.6875 Z M 1.53125 -2.6875 "/></g></g></g><g fill="#ffffff" fill-opacity="1"><g transform="translate(205.161294, 246.140428)"><g><path d="M 3.109375 0 L 2.21875 0 L 0.25 -5.703125 L 0.953125 -5.703125 L 2.625 -0.84375 L 2.734375 -0.84375 L 4.375 -5.703125 L 5.078125 -5.703125 Z M 3.109375 0 "/></g></g></g><g fill="#ffffff" fill-opacity="1"><g transform="translate(215.210833, 246.140428)"><g><path d="M 1.53125 -2.6875 L 1.53125 -0.546875 L 4.4375 -0.546875 L 4.4375 0 L 0.859375 0 L 0.859375 -5.703125 L 4.375 -5.703125 L 4.375 -5.140625 L 1.53125 -5.140625 L 1.53125 -3.234375 L 4.03125 -3.234375 L 4.03125 -2.6875 Z M 1.53125 -2.6875 "/></g></g></g><g fill="#ffffff" fill-opacity="1"><g transform="translate(224.749386, 246.140428)"><g><path d="M 1.53125 -5.703125 L 1.53125 -0.546875 L 4.28125 -0.546875 L 4.28125 0 L 0.859375 0 L 0.859375 -5.703125 Z M 1.53125 -5.703125 "/></g></g></g><g fill="#ffffff" fill-opacity="1"><g transform="translate(233.991488, 246.140428)"><g><path d="M 3.125 0.078125 C 2.632812 0.078125 2.195312 -0.0234375 1.8125 -0.234375 C 1.425781 -0.453125 1.117188 -0.78125 0.890625 -1.21875 C 0.671875 -1.65625 0.5625 -2.195312 0.5625 -2.84375 C 0.5625 -3.5 0.671875 -4.046875 0.890625 -4.484375 C 1.117188 -4.921875 1.425781 -5.242188 1.8125 -5.453125 C 2.195312 -5.671875 2.632812 -5.78125 3.125 -5.78125 C 3.625 -5.78125 4.0625 -5.671875 4.4375 -5.453125 C 4.820312 -5.242188 5.125 -4.921875 5.34375 -4.484375 C 5.570312 -4.046875 5.6875 -3.5 5.6875 -2.84375 C 5.6875 -2.195312 5.570312 -1.65625 5.34375 -1.21875 C 5.125 -0.78125 4.820312 -0.453125 4.4375 -0.234375 C 4.0625 -0.0234375 3.625 0.078125 3.125 0.078125 Z M 3.125 -0.53125 C 3.71875 -0.53125 4.171875 -0.71875 4.484375 -1.09375 C 4.804688 -1.46875 4.96875 -2.050781 4.96875 -2.84375 C 4.96875 -3.644531 4.804688 -4.226562 4.484375 -4.59375 C 4.171875 -4.96875 3.71875 -5.15625 3.125 -5.15625 C 1.894531 -5.15625 1.28125 -4.382812 1.28125 -2.84375 C 1.28125 -1.300781 1.894531 -0.53125 3.125 -0.53125 Z M 3.125 -0.53125 "/></g></g></g><g fill="#ffffff" fill-opacity="1"><g transform="translate(244.969379, 246.140428)"><g><path d="M 2.90625 -5.703125 C 3.289062 -5.703125 3.625 -5.628906 3.90625 -5.484375 C 4.1875 -5.347656 4.398438 -5.148438 4.546875 -4.890625 C 4.691406 -4.628906 4.765625 -4.320312 4.765625 -3.96875 C 4.765625 -3.613281 4.691406 -3.304688 4.546875 -3.046875 C 4.398438 -2.785156 4.1875 -2.582031 3.90625 -2.4375 C 3.625 -2.300781 3.289062 -2.234375 2.90625 -2.234375 L 1.53125 -2.234375 L 1.53125 0 L 0.859375 0 L 0.859375 -5.703125 Z M 2.875 -2.796875 C 3.664062 -2.796875 4.0625 -3.1875 4.0625 -3.96875 C 4.0625 -4.738281 3.664062 -5.125 2.875 -5.125 L 1.53125 -5.125 L 1.53125 -2.796875 Z M 2.875 -2.796875 "/></g></g></g><g fill="#ffffff" fill-opacity="1"><g transform="translate(254.890192, 246.140428)"><g><path d="M 1.53125 -2.6875 L 1.53125 -0.546875 L 4.4375 -0.546875 L 4.4375 0 L 0.859375 0 L 0.859375 -5.703125 L 4.375 -5.703125 L 4.375 -5.140625 L 1.53125 -5.140625 L 1.53125 -3.234375 L 4.03125 -3.234375 L 4.03125 -2.6875 Z M 1.53125 -2.6875 "/></g></g></g><g fill="#ffffff" fill-opacity="1"><g transform="translate(264.428739, 246.140428)"><g><path d="M 0.859375 0 L 0.859375 -5.703125 L 2.9375 -5.703125 C 3.3125 -5.703125 3.628906 -5.640625 3.890625 -5.515625 C 4.148438 -5.390625 4.34375 -5.207031 4.46875 -4.96875 C 4.601562 -4.738281 4.671875 -4.46875 4.671875 -4.15625 C 4.671875 -3.800781 4.582031 -3.507812 4.40625 -3.28125 C 4.226562 -3.050781 3.953125 -2.878906 3.578125 -2.765625 L 3.578125 -2.6875 C 3.765625 -2.613281 3.914062 -2.5 4.03125 -2.34375 C 4.144531 -2.1875 4.253906 -1.953125 4.359375 -1.640625 L 4.890625 0 L 4.1875 0 L 3.625 -1.75 C 3.5625 -1.945312 3.484375 -2.101562 3.390625 -2.21875 C 3.304688 -2.34375 3.195312 -2.429688 3.0625 -2.484375 C 2.925781 -2.535156 2.753906 -2.5625 2.546875 -2.5625 L 1.53125 -2.5625 L 1.53125 0 Z M 2.921875 -3.125 C 3.273438 -3.125 3.535156 -3.207031 3.703125 -3.375 C 3.878906 -3.539062 3.96875 -3.789062 3.96875 -4.125 C 3.96875 -4.46875 3.878906 -4.71875 3.703125 -4.875 C 3.535156 -5.039062 3.273438 -5.125 2.921875 -5.125 L 1.53125 -5.125 L 1.53125 -3.125 Z M 2.921875 -3.125 "/></g></g></g><g fill="#ffffff" fill-opacity="1"><g transform="translate(162.71701, 201.826187)"><g><path d="M 83.015625 -107.359375 C 88.421875 -107.359375 93.382812 -106.238281 97.90625 -104 C 102.4375 -101.769531 106.03125 -98.625 108.6875 -94.5625 C 111.34375 -90.507812 112.671875 -85.984375 112.671875 -80.984375 C 112.671875 -67.773438 106.6875 -59.453125 94.71875 -56.015625 L 94.71875 -55.390625 C 108.34375 -52.273438 115.15625 -43.332031 115.15625 -28.5625 C 115.15625 -22.9375 113.773438 -17.960938 111.015625 -13.640625 C 108.265625 -9.328125 104.492188 -5.972656 99.703125 -3.578125 C 94.921875 -1.191406 89.671875 0 83.953125 0 L 11.546875 0 L 11.546875 -107.359375 Z M 46.03125 -65.546875 L 69.75 -65.546875 C 72.039062 -65.546875 73.941406 -66.347656 75.453125 -67.953125 C 76.960938 -69.566406 77.71875 -71.570312 77.71875 -73.96875 L 77.71875 -75.53125 C 77.71875 -77.8125 76.9375 -79.757812 75.375 -81.375 C 73.8125 -82.988281 71.9375 -83.796875 69.75 -83.796875 L 46.03125 -83.796875 Z M 46.03125 -24.96875 L 72.25 -24.96875 C 74.539062 -24.96875 76.4375 -25.773438 77.9375 -27.390625 C 79.445312 -29.003906 80.203125 -31.003906 80.203125 -33.390625 L 80.203125 -34.953125 C 80.203125 -37.347656 79.445312 -39.347656 77.9375 -40.953125 C 76.4375 -42.566406 74.539062 -43.375 72.25 -43.375 L 46.03125 -43.375 Z M 46.03125 -24.96875 "/></g></g></g></svg>