<svg id="_0477_data_storage_1" xmlns="http://www.w3.org/2000/svg" xmlns:xlink="http://www.w3.org/1999/xlink" viewBox="0 0 500 500" data-imageid="data-storage-1-71" imageName="Data Storage 1" class="illustrations_image" style="width: 161px;"><defs><style>.cls-1_data-storage-1-71{fill:url(#linear-gradient);}.cls-1_data-storage-1-71,.cls-2_data-storage-1-71,.cls-3_data-storage-1-71,.cls-4_data-storage-1-71,.cls-5_data-storage-1-71,.cls-6_data-storage-1-71,.cls-7_data-storage-1-71,.cls-8_data-storage-1-71,.cls-9_data-storage-1-71,.cls-10_data-storage-1-71,.cls-11_data-storage-1-71,.cls-12_data-storage-1-71,.cls-13_data-storage-1-71,.cls-14_data-storage-1-71,.cls-15_data-storage-1-71{stroke-width:0px;}.cls-2_data-storage-1-71{isolation:isolate;opacity:.18;}.cls-2_data-storage-1-71,.cls-15_data-storage-1-71{fill:#68e1fd;}.cls-3_data-storage-1-71{fill:url(#linear-gradient-4-data-storage-1-71);}.cls-4_data-storage-1-71{fill:url(#linear-gradient-2-data-storage-1-71);}.cls-5_data-storage-1-71{fill:url(#linear-gradient-3-data-storage-1-71);}.cls-6_data-storage-1-71{fill:url(#linear-gradient-8-data-storage-1-71);}.cls-7_data-storage-1-71{fill:url(#linear-gradient-9-data-storage-1-71);}.cls-8_data-storage-1-71{fill:url(#linear-gradient-7-data-storage-1-71);}.cls-9_data-storage-1-71{fill:url(#linear-gradient-5-data-storage-1-71);}.cls-10_data-storage-1-71{fill:url(#linear-gradient-6-data-storage-1-71);}.cls-11_data-storage-1-71{fill:#231f20;}.cls-12_data-storage-1-71{fill:#c14834;}.cls-13_data-storage-1-71{fill:#fff;}.cls-14_data-storage-1-71{fill:#ffaa71;}</style><linearGradient id="linear-gradient-data-storage-1-71" x1="217.88" y1="2952.65" x2="437.45" y2="3126.42" gradientTransform="translate(-31 3343.65) scale(1 -1)" gradientUnits="userSpaceOnUse"><stop offset="0" stop-color="#231f20"/><stop offset=".13" stop-color="#231f20" stop-opacity=".69"/><stop offset=".25" stop-color="#231f20" stop-opacity=".32"/><stop offset="1" stop-color="#231f20" stop-opacity="0"/></linearGradient><linearGradient id="linear-gradient-2-data-storage-1-71" x1="217.88" y1="3011.69" x2="437.45" y2="3185.46" xlink:href="#linear-gradient-data-storage-1-71"/><linearGradient id="linear-gradient-3-data-storage-1-71" x1="216.43" y1="3069.98" x2="436.02" y2="3243.75" xlink:href="#linear-gradient-data-storage-1-71"/><linearGradient id="linear-gradient-4-data-storage-1-71" x1="665.45" y1="3227.26" x2="2.66" y2="2839.29" xlink:href="#linear-gradient-data-storage-1-71"/><linearGradient id="linear-gradient-5-data-storage-1-71" x1="216.47" y1="3053.17" x2="299.52" y2="2976.38" gradientTransform="translate(-51.97 3334.62) scale(1 -1)" xlink:href="#linear-gradient-data-storage-1-71"/><linearGradient id="linear-gradient-6-data-storage-1-71" x1="247.76" y1="3043.31" x2="277.17" y2="3028.72" gradientTransform="translate(-51.97 3334.62) scale(1 -1)" xlink:href="#linear-gradient-data-storage-1-71"/><linearGradient id="linear-gradient-7-data-storage-1-71" x1="223.81" y1="3005.1" x2="240.88" y2="3043.5" gradientTransform="translate(-51.97 3334.62) scale(1 -1)" xlink:href="#linear-gradient-data-storage-1-71"/><linearGradient id="linear-gradient-8-data-storage-1-71" x1="251.45" y1="3133.62" x2="359.67" y2="2983.64" gradientTransform="translate(-51.97 3334.62) scale(1 -1)" xlink:href="#linear-gradient-data-storage-1-71"/><linearGradient id="linear-gradient-9-data-storage-1-71" x1="290.77" y1="3179.45" x2="304.81" y2="3148.81" gradientTransform="translate(-51.97 3334.62) scale(1 -1)" xlink:href="#linear-gradient-data-storage-1-71"/></defs><path id="background_data-storage-1-71" class="cls-2_data-storage-1-71 targetColor" d="M296.21,76.96l87.98,8.86c19.48,1.97,39.38,3.99,57.14,12.36,25.96,12.16,45.18,38.53,47.1,67.09,1.66,25.37-8.97,49.04-10.24,74.05-1.33,26.88,13.73,47.83,13.7,74.86-.17,29.06-11.66,56.92-32.02,77.65-28.65,28.89-71.03,39.76-111.61,41.9-40.58,2.14-81.36-3.19-121.98-1-38.44,2.07-76.68,10.86-115.06,7.97-38.37-2.88-79.11-21.03-94.25-56.42-13.29-30.99-4.44-68.79,7.35-98.94,9.51-24.4,29.86-35.86,42.68-58.94,24.01-43.4,25.34-101.78,66.73-134.47,33.22-26.24,80.1-23.29,122.24-19.04l40.25,4.07Z" style="fill: rgb(104, 225, 253);"/><g id="data_storage_data-storage-1-71"><polygon class="cls-15_data-storage-1-71 targetColor" points="169.6 338.53 284.52 276.11 362.08 318.19 241.96 383.94 169.6 338.53" style="fill: rgb(104, 225, 253);"/><polygon class="cls-15_data-storage-1-71 targetColor" points="169.6 376.54 169.6 338.53 284.52 314.12 362.08 318.19 362.08 356.2 241.96 421.93 169.6 376.54" style="fill: rgb(104, 225, 253);"/><polygon class="cls-1_data-storage-1-71" points="178.16 337.77 282.86 280.88 353.54 319.24 244.08 379.14 178.16 337.77"/><polygon class="cls-15_data-storage-1-71 targetColor" points="169.6 279.48 284.52 217.07 362.08 259.15 241.96 324.88 169.6 279.48" style="fill: rgb(104, 225, 253);"/><polygon class="cls-15_data-storage-1-71 targetColor" points="362.1 259.15 362.1 297.15 241.96 362.89 183.14 325.99 178.62 323.14 169.61 317.49 169.61 279.48 284.54 255.06 362.1 259.15" style="fill: rgb(104, 225, 253);"/><polygon class="cls-4_data-storage-1-71" points="178.16 278.73 282.86 221.85 353.54 260.2 244.08 320.1 178.16 278.73"/><polygon class="cls-15_data-storage-1-71 targetColor" points="168.16 259.2 168.16 221.19 283.09 196.77 360.65 200.86 360.65 238.87 240.52 304.6 168.16 259.2" style="fill: rgb(104, 225, 253);"/><polygon class="cls-15_data-storage-1-71 targetColor" points="168.16 221.19 283.09 158.76 360.65 200.86 240.52 266.59 168.16 221.19" style="fill: rgb(104, 225, 253);"/><polygon class="cls-5_data-storage-1-71" points="176.71 220.44 281.43 163.55 352.1 201.91 242.64 261.81 176.71 220.44"/><polygon class="cls-3_data-storage-1-71" points="240.52 266.59 240.52 421.93 362.08 356.2 246.05 383.94 246.05 356.83 362.1 297.15 246.72 323.54 246.72 298.13 360.65 238.87 240.52 266.59"/></g><g id="screen_data-storage-1-71"><polygon class="cls-15_data-storage-1-71 targetColor" points="224.56 118 115.07 166.06 115.07 75.23 224.56 27.17 224.56 118" style="fill: rgb(104, 225, 253);"/><polygon class="cls-15_data-storage-1-71 targetColor" points="494.73 194.46 385.24 242.52 385.24 151.68 494.73 103.62 494.73 194.46" style="fill: rgb(104, 225, 253);"/><polygon class="cls-15_data-storage-1-71 targetColor" points="301.25 126.37 263.55 142.91 263.55 111.63 301.25 95.09 301.25 126.37" style="fill: rgb(104, 225, 253);"/><path class="cls-15_data-storage-1-71 targetColor" d="M32.28,351.56v-92.6l.48-.21,110.61-48.55v92.6l-.48.21-110.61,48.55ZM33.88,260.11v89.01l107.88-47.36v-89.09l-107.88,47.43Z" style="fill: rgb(104, 225, 253);"/><path class="cls-13_data-storage-1-71" d="M211.95,93.11c-.09,2.64-.96,5.2-2.49,7.35-1.47,2.22-3.54,3.97-5.97,5.05l-58.52,23.3c-4.7,1.88-8.53-.63-8.53-5.6.04-2.63.85-5.19,2.33-7.36,1.47-2.21,3.54-3.96,5.97-5.03l1.99-.79c-.42-1.46-.63-2.96-.63-4.48.17-5.22,1.88-10.26,4.93-14.5,2.93-4.4,7.09-7.85,11.95-9.93l4.97-1.99c6.5-2.58,12.13-.94,14.94,3.61,1.34-1.27,2.9-2.28,4.6-2.99l1.27-.51c5.59-2.23,10.13.75,10.13,6.63v.54c0,1.04-.15,2.08-.4,3.09l4.85-1.93c4.73-1.94,8.62.57,8.62,5.54Z"/></g><g id="character_data-storage-1-71"><path class="cls-9_data-storage-1-71" d="M214.46,302.84c0,3.27-5.36,6.35-7.98,7.11-1.09.22-2.16.56-3.18,1-1.02.5-1.66,1.54-1.66,2.67.12.96.91,1.72,1.12,2.66.11.81,0,1.64-.3,2.4-.99,3.17-4.96,5.14-5.97,8.29-5.48-.54-7.96-.09-13.44-.99l-4.48-2.85,6.84-12.59c.88-1.78,1.96-3.46,3.23-5,1.49-1.53,3.19-2.85,5.03-3.93,4.76-3.03,9.72-5.76,14.83-8.15-.64.31,5.96,8.47,5.96,9.38Z"/><path class="cls-14_data-storage-1-71" d="M211.27,288.02c.57,1.79,1.08,3.91,0,5.42-.51.65-1.2,1.14-1.99,1.4-1.86.9-4.07.67-5.71-.58-.85-.91-1.44-2.03-1.73-3.24-1.4-4.38-2.4-8.88-2.99-13.44-.31-.94.2-1.94,1.14-2.26,2.43-1.28,6.23-2.33,7.6.54,1.64,3.66,2.45,8.23,3.67,12.16Z"/><path class="cls-15_data-storage-1-71 targetColor" d="M203.93,290.11c-.5-.07-1.01-.02-1.49.13-.33.19-.63.44-.87.75l-5.26,5.97c-1.02,1.15-2.11,2.72-1.39,4.08.52.76,1.35,1.25,2.27,1.34,2.56.22,5.12-.3,7.39-1.49,1.63-.7,3.23-1.49,4.79-2.3,1.18-.52,2.21-1.32,2.99-2.34,1.19-1.84,1.57-6.23-.58-7.6-1.08-.69-2.03-.19-2.99.28-1.5.78-3.17,1.19-4.87,1.18Z" style="fill: rgb(104, 225, 253);"/><path class="cls-14_data-storage-1-71" d="M182.08,308.16c-.04.34,0,.68.12,1,.18.32.44.58.76.76,1,.69,2.18,1.08,3.39,1.14,1.24.03,2.43-.52,3.2-1.49.57-.9.91-1.93.99-2.99.45-2.25.67-4.54.66-6.84.03-.32-.07-.65-.28-.9-.18-.14-.39-.23-.61-.25-1.9-.39-5.66-1.37-6.63.94-1,2.77-1.53,5.69-1.58,8.63Z"/><path class="cls-15_data-storage-1-71 targetColor" d="M174.03,307.9c-1.62.08-3.23.38-4.76.91-1.55.53-2.82,1.69-3.49,3.18-.31.73-.35,1.56-.1,2.31.53,1.11,1.45,1.97,2.58,2.43,5.43,2.89,11.56,4.22,17.7,3.82,1.58.05,3.12-.51,4.3-1.57.86-1.26,1.26-2.78,1.14-4.3l.21-7.17c-1.37-.21-2.64.67-3.94,1.12-2.26.76-3.15-1.08-5.02-1.49-2.43-.55-6.11.54-8.6.75Z" style="fill: rgb(104, 225, 253);"/><path class="cls-10_data-storage-1-71" d="M203.93,290.11c-.5-.07-1.01-.02-1.49.13-.33.19-.63.44-.87.75l-5.26,5.97c-1.02,1.15-2.11,2.72-1.39,4.08.52.76,1.35,1.25,2.27,1.34,2.56.22,5.12-.3,7.39-1.49,1.63-.7,3.23-1.49,4.79-2.3,1.18-.52,2.21-1.32,2.99-2.34,1.19-1.84,1.57-6.23-.58-7.6-1.08-.69-2.03-.19-2.99.28-1.5.78-3.17,1.19-4.87,1.18Z"/><path class="cls-8_data-storage-1-71" d="M174.03,307.9c-1.62.08-3.23.38-4.76.91-1.55.53-2.82,1.69-3.49,3.18-.31.73-.35,1.56-.1,2.31.53,1.11,1.45,1.97,2.58,2.43,5.43,2.89,11.56,4.22,17.7,3.82,1.58.05,3.12-.51,4.3-1.57.86-1.26,1.26-2.78,1.14-4.3l.21-7.17c-1.37-.21-2.64.67-3.94,1.12-2.26.76-3.15-1.08-5.02-1.49-2.43-.55-6.11.54-8.6.75Z"/><path class="cls-6_data-storage-1-71" d="M261.09,230.12c3.28-.28,6.59-.23,9.86.16.43.01.85.14,1.21.37.41.39.65.93.67,1.49.46,4.48-2.99,8.27-6.84,10.62-10.25,6.35-23.18,6.14-34.51,10.26-1.07.29-2.03.91-2.73,1.78-.45.93-.68,1.95-.66,2.99-.51,5.97-3.82,11.35-4.93,17.24s.09,12.04-.82,17.92c-3.72-3.96-10.04-4.59-13.8-8.5-3.48-3.6-4.17-8.96-4.69-13.96l-1.4-13.65c-.16-.85-.11-1.74.13-2.57.5-1.03,1.33-1.87,2.34-2.39,16.76-10.63,36.35-20.04,56.17-21.76Z"/><path class="cls-11_data-storage-1-71" d="M193.49,228.75c-1.55.31-2.98,1.04-4.15,2.11-1.18,1.66-1.72,3.7-1.49,5.74.03,14.5,2.76,28.86,8.06,42.36.22,1.63,1.72,2.78,3.36,2.56.32-.04.62-.14.91-.28,3.17-.88,6.3-1.91,9.38-3.11l-4.17-27.53c-.19-.77-.14-1.58.13-2.33.31-.52.74-.95,1.25-1.27,4.72-3.46,9.72-6.54,14.94-9.2,4.15-2.12,8.96-4.48,10.08-9.05.46-1.54.15-3.21-.84-4.48-.66-.63-1.44-1.14-2.29-1.49-2.76-1.36-6.26-3.11-9.44-2.78-2.54.25-3.52,1.73-5.65,2.82-5.87,2.94-13.7,4.06-20.1,5.93Z"/><path class="cls-14_data-storage-1-71" d="M221.87,185.08c-2.05,5.63-2.99,11.6-4.85,17.31-.4,1.51-1.11,2.92-2.08,4.14-1.27,1.23-2.8,2.15-4.48,2.69-2.39.93-4.82,1.73-7.3,2.42-1.64.46-3.63,1.21-3.81,2.9-.03.56.08,1.13.34,1.63,1.29,2.31,3.7,3.78,6.35,3.88,2.61.07,5.2-.35,7.65-1.25,2.22-.46,4.24-1.58,5.81-3.21.93-1.35,1.57-2.87,1.88-4.48,2.52-8.89,6-17.49,10.38-25.63,1.31-2.15,2.34-4.47,3.06-6.89,1.02-4.2,1.03-14.19-3.33-10.45-3.58,2.93-8.08,12.69-9.62,16.95Z"/><path class="cls-13_data-storage-1-71" d="M238.55,228.21c-2.57-.99-5.06-2.16-7.47-3.49-9.19-5.06-1.67-7.56,1.4-13.65,2.17-4.33,1.3-9.5.15-14.2-2-8.24-4.66-16.77-2.73-25.03.23-1.34.74-2.61,1.49-3.73.56-.69,1.2-1.31,1.91-1.85,1.94-1.66,4.17-2.96,6.57-3.84,4.64-1.49,9.78-.4,14.13,1.78,17.12,8.59,20.77,30.27,20.09,47.61-.19,4.81-.93,9.9-4.03,13.58-2.99,3.45-7.47,5.09-11.95,5.65-6.65.68-13.37-.28-19.56-2.81Z"/><path class="cls-14_data-storage-1-71" d="M241.11,175.91c0,.48.19.94.54,1.27.32.19.69.27,1.06.22,4.62-.22,8.19-4.14,7.98-8.76-.02-.39-.06-.77-.13-1.15-.38-1.45-.82-2.88-1.34-4.29-.81-2.85-.66-6.12-2.48-8.47-1.58,3.59-3.38,7.09-5.39,10.45-1.03,1.36-1.39,3.11-1,4.76.27,2.05.52,3.97.78,5.96Z"/><path class="cls-7_data-storage-1-71" d="M240.21,168.44l.69,4.63s7.87-3.88,6.84-11.11c-1.03-7.23-7.53,6.48-7.53,6.48Z"/><path class="cls-14_data-storage-1-71" d="M231.01,163.99c.41,1.46,1.26,2.77,2.43,3.73.58.38,1.21.65,1.88.81,4.77.91,9.59-1.35,11.95-5.6,2.22-4.28,2.45-9.32.64-13.79-.7-2.4-2.31-4.43-4.48-5.66-2.46-.97-5.23-.64-7.39.88-2.9,2.02-5.14,4.84-6.44,8.12-1.22,3.36.27,8.3,1.4,11.5Z"/><path class="cls-11_data-storage-1-71" d="M196.47,247.97c-1.96,2.49-3.51,5.27-4.6,8.24-6.01,14.49-9.91,29.77-11.59,45.37,4.9.61,9.87.61,14.77,0,.39-11.03,2.09-21.97,5.08-32.59.52-2.28,1.42-4.46,2.66-6.45,2.2-3.15,5.78-4.99,9.21-6.71,7.94-3.86,16.24-6.93,24.78-9.17,3.61-1,7.24-1.9,10.78-3.09,3.03-.9,5.88-2.35,8.39-4.27,2.51-1.96,4.13-4.85,4.48-8.02,0,.81-17.92,0-19.58-.24-5.6-.6-12.22-3.81-17.74-1.49-4.33,1.76-8.29,5.47-12.19,8.01-4.79,3.14-10.62,5.97-14.46,10.41Z"/><polygon class="cls-15_data-storage-1-71 targetColor" points="221.99 246.77 253.16 231.55 217.08 218.75 188.64 231.18 221.99 246.77" style="fill: rgb(104, 225, 253);"/><path class="cls-14_data-storage-1-71" d="M265.26,181.58c.09.52.15,1.05.21,1.49.85,7.81,0,15.5-.21,23.27-.18,4.81-.82,13.98-5.97,16.43-9.53,4.69-27.91,2.99-27.91,2.99-2.14-.34-4.33-.25-6.44.25-1.14.34-2.2.96-3.32,1.39-4.03,1.49-8.54.76-12.78,0-.74-.09-1.45-.32-2.09-.69-1.64-1.11-1.57-3.73-.34-5.29,1.38-1.44,3.17-2.43,5.12-2.82,5.37-1.76,11.12-1.98,16.61-.64.7.23,1.41.43,2.14.58.85.13,1.71.19,2.57.18h6.51c7.47.07,14.53.1,15.67-8.66.42-3.24.51-6.51.25-9.77-.45-5.97-1.99-11.72-1.67-17.61.02-1.87.49-3.7,1.36-5.35.9-1.66,2.6-2.74,4.48-2.85,1.98.15,3.74,1.33,4.63,3.11.63,1.25,1.04,2.6,1.19,3.99Z"/><polygon class="cls-15_data-storage-1-71 targetColor" points="176.93 203.15 216.66 223.37 221.99 246.77 188.64 231.18 176.93 203.15" style="fill: rgb(104, 225, 253);"/><path class="cls-12_data-storage-1-71" d="M242.69,155c1.01,1.52,1.85,3.15,2.49,4.85.73-1.49-.42-4.03,1.16-4.59.94-.34,1.93.76,1.84,1.78-.21,1-.81,1.88-1.67,2.43,1.22,3.63,5.08,4.9,8.32,6.08,3.63,1.42,6.78,3.85,9.07,7,2.78,4.06,5.02,8.46,6.66,13.1.85-1.49,2.87-1.72,4.48-2.2,5.01-1.72,8.04-6.81,7.17-12.04-1.13-5.14-5.36-9.02-10.57-9.71-1.58.02-3.15-.34-4.56-1.06-1.76-1.24-2.05-3.67-2.82-5.68-1.87-4.54-6.6-7.23-11.46-6.51.22-1.9.06-3.83-.48-5.68-1-2.39-2.95-4.25-5.38-5.15-2.42-.87-4.97-1.31-7.54-1.3-2.45-.09-5.09,0-7,1.49-2.23,1.78-2.76,4.96-2.61,7.81-1.49-.08-2.86.82-3.38,2.23-.48,1.38-.38,2.9.27,4.21.39.87.93,1.67,1.61,2.34.43-1.33,1.05-2.69,2.36-2.4s2.51,1.49,3.78,1.93c1.36.43,2.76.71,4.18.84,1.36-.06,2.73,0,4.08.21Z"/></g></svg>