<?xml version="1.0" encoding="utf-8"?>
<svg viewBox="517.3001098632812 218 97.29986572265625 123.699951171875" width="97.29986572265625" height="123.699951171875" xmlns="http://www.w3.org/2000/svg"><g id="Layer_6" transform="matrix(1, 0, 0, 1, 0, 0)">
	<path d="M612,241.2c-2.8-5.6-7.6-6.4-20.8-2.7c-5.8,1.6-11,3.2-16.3,5.2c-2.6,1-5.2,2-7.8,2.7c-1.2,0.4-5.5,1.2-0.5-6.3&#10;&#9;&#9;c1.4-2.3,3-4.6,4.6-7c1.6-2.4,3.3-4.7,4.7-7.5c0.3-0.7,0.7-1.5,0.9-2.5c0.2-0.8,0.4-2.7-0.9-3.8c-1.8-1.2-3.4-1.3-5.6-1.3&#10;&#9;&#9;c-6.2,0.6-11.6,3.1-16.6,5.8c-5.1,2.8-9.7,6.2-14.1,9.9c-8.7,7.5-16.1,16.3-22.3,25.8c6.7-9.2,14.5-17.5,23.4-24.4&#10;&#9;&#9;c4.5-3.4,9.2-6.5,14.2-9c5-2.4,10.4-4.4,15.5-4.6c1.9,0,2.5,0.9,1.8,2.2c-0.9,1.6-3,4.5-4.7,6.7c-1.7,2.2-3.5,4.5-5.2,6.9&#10;&#9;&#9;c-1.6,2.5-3.5,4.8-4,9c0,1.1,0.1,2.5,0.9,3.7c0.4,0.5,0.8,1.1,1.7,1.6c0.7,0.4,1.4,0.5,2,0.7c2.2,0.3,3.7-0.1,5.3-0.4&#10;&#9;&#9;c14-4.3,27.5-8.6,32-8.6c2.7-0.2,4.8,1.8,0.8,5.2c-1.9,1.7-4,3.5-6.2,5.2c-8.9,7-18,14.3-26.2,22.7c-11.7,11.8-21.6,25.5-29.2,40.4&#10;&#9;&#9;l-6.3-3.6l0.5,28.5l24.1-14.7l-6.6-3.7c6.3-14.3,14.9-27.7,25.4-39.6c7.3-8.3,15.5-15.7,24.1-23.2c2.1-1.9,4.3-3.8,6.5-6.1&#10;&#9;&#9;C608.2,253.4,614.6,247.2,612,241.2z" style="fill: rgb(204, 204, 204); opacity: 1;"/>
</g></svg>