<svg id="visual" viewBox="0 0 900 600" width="900" height="600" xmlns="http://www.w3.org/2000/svg" xmlns:xlink="http://www.w3.org/1999/xlink" version="1.1"><rect x="0" y="0" width="900" height="600" fill="#052336"></rect><defs><linearGradient id="grad1_0" x1="33.3%" y1="0%" x2="100%" y2="100%"><stop offset="20%" stop-color="#052336" stop-opacity="1"></stop><stop offset="80%" stop-color="#052336" stop-opacity="1"></stop></linearGradient></defs><defs><linearGradient id="grad2_0" x1="0%" y1="0%" x2="66.7%" y2="100%"><stop offset="20%" stop-color="#052336" stop-opacity="1"></stop><stop offset="80%" stop-color="#052336" stop-opacity="1"></stop></linearGradient></defs><g transform="translate(900, 0)"><path d="M0 243.4C-24.5 235.3 -49 227.3 -70.5 216.8C-91.9 206.4 -110.3 193.4 -132.3 182C-154.2 170.6 -179.7 160.8 -196.9 143.1C-214.1 125.3 -222.9 99.6 -229.2 74.5C-235.6 49.3 -239.5 24.7 -243.4 0L0 0Z" fill="#791ad3"></path></g><g transform="translate(0, 600)"><path d="M0 -243.4C21.1 -228.4 42.2 -213.3 67.7 -208.3C93.1 -203.2 122.9 -208.1 143.1 -196.9C163.2 -185.7 173.6 -158.4 186.9 -135.8C200.2 -113.2 216.4 -95.4 226.4 -73.5C236.3 -51.7 239.8 -25.9 243.4 0L0 0Z" fill="#791ad3"></path></g></svg>