<svg id="visual" viewBox="0 0 900 600" width="900" height="600" xmlns="http://www.w3.org/2000/svg" xmlns:xlink="http://www.w3.org/1999/xlink" version="1.1"><rect x="0" y="0" width="900" height="600" fill="#002233"></rect><path d="M0 412L21.5 417.5C43 423 86 434 128.8 445.3C171.7 456.7 214.3 468.3 257.2 461.3C300 454.3 343 428.7 385.8 423C428.7 417.3 471.3 431.7 514.2 419.3C557 407 600 368 642.8 359C685.7 350 728.3 371 771.2 381.8C814 392.7 857 393.3 878.5 393.7L900 394L900 601L878.5 601C857 601 814 601 771.2 601C728.3 601 685.7 601 642.8 601C600 601 557 601 514.2 601C471.3 601 428.7 601 385.8 601C343 601 300 601 257.2 601C214.3 601 171.7 601 128.8 601C86 601 43 601 21.5 601L0 601Z" fill="#3283ff" stroke-linecap="round" stroke-linejoin="miter"></path></svg>